<?xml version="1.0" encoding="UTF-8"?> <svg xmlns="http://www.w3.org/2000/svg" width="731" height="700" viewBox="0 0 731 700" fill="none"> <path d="M714.134 198.86L662.718 171.573C647.588 163.547 628.817 169.042 620.406 183.964L459.353 469.937C457.067 474.01 455.478 478.911 455.082 483.563C452.306 516.604 450.009 549.667 447.348 582.719C446.744 590.281 447.15 597.125 454.462 601.453C462.139 605.99 468.462 602.844 474.916 598.177C501.785 578.751 528.885 559.667 555.697 540.172C559.468 537.432 562.744 533.485 565.114 529.438L726.86 242.264C735.563 226.795 729.819 207.186 714.142 198.868L714.134 198.86ZM497.134 557.567L471.156 542.936L472.02 523.081C472.687 514.415 473.364 505.759 474.041 497.087C494.177 508.555 513.932 519.8 533.962 531.212C521.915 539.879 509.593 548.827 497.134 557.567H497.134ZM541.676 508.343C538.582 506.337 533.545 503.082 529.285 500.327C567.436 432.483 605.608 364.594 644.389 295.634C649.103 298.54 653.675 301.363 657.243 303.556C618.889 371.54 580.494 439.582 541.675 508.342L541.676 508.343ZM706.889 235.343C697.535 252.468 687.873 269.431 678.55 286.092C655.3 272.946 632.477 260.04 608.946 246.728C618.243 230.187 627.696 213.092 637.436 196.187C641.717 188.765 648.576 186.739 656.066 190.796C671.468 199.16 686.749 207.749 701.878 216.603C709.243 220.91 711.019 227.795 706.889 235.343H706.889Z" fill="#2879EC"></path> <path d="M572.588 563.327C558.041 573.92 543.421 584.348 528.817 594.805V614.545C528.817 635.009 512.229 651.608 491.755 651.608H85.4615C64.9975 651.608 48.3988 635.02 48.3988 614.545V85.4653C48.3988 65.0013 64.9868 48.4027 85.4615 48.4027H490.915C511.087 48.4027 527.551 64.5387 527.967 84.7093L528.805 125.788V288.188L577.212 202.251V65.304C577.212 29.236 547.977 0.00134277 511.915 0.00134277H64.328C28.792 0.00134277 0 28.808 0 64.3293V635.663C0 671.189 28.792 699.996 64.328 699.996H512.875C548.401 699.996 577.203 671.189 577.203 635.668V559.46C575.75 560.778 574.27 562.095 572.588 563.319V563.327Z" fill="#2879EC"></path> <path d="M482.215 174.94H257.468C249.65 174.94 243.317 168.607 243.317 160.789C243.317 152.972 249.651 146.639 257.468 146.639H482.228C490.046 146.639 496.379 152.972 496.379 160.789C496.374 168.602 490.03 174.94 482.212 174.94H482.215Z" fill="#2879EC"></path> <path d="M401.921 227.98H257.468C249.65 227.98 243.317 221.647 243.317 213.829C243.317 206.012 249.651 199.679 257.468 199.679H401.921C409.739 199.679 416.072 206.012 416.072 213.829C416.067 221.647 409.734 227.98 401.916 227.98H401.921Z" fill="#2879EC"></path> <path d="M198.774 147.473C191.717 140.426 180.238 140.416 173.129 147.51L132.566 188.718L116.244 172.395C109.186 165.338 97.6918 165.338 90.6345 172.395C87.2178 175.812 85.3271 180.364 85.3271 185.192C85.3271 190.02 87.2178 194.572 90.6345 197.989L119.79 227.145C123.207 230.577 127.759 232.452 132.603 232.452C137.447 232.452 141.994 230.572 145.426 227.119L198.765 173.067C205.832 166.01 205.832 154.531 198.775 147.474L198.774 147.473Z" fill="#2879EC"></path> <path d="M482.215 328.247H257.468C249.65 328.247 243.317 321.913 243.317 314.096C243.317 306.278 249.651 299.945 257.468 299.945H482.228C490.046 299.945 496.379 306.279 496.379 314.096C496.363 321.924 490.03 328.247 482.212 328.247H482.215Z" fill="#2879EC"></path> <path d="M401.921 381.313H257.468C249.65 381.313 243.317 374.98 243.317 367.163C243.317 359.345 249.651 353.012 257.468 353.012H401.921C409.739 353.012 416.072 359.345 416.072 367.163C416.067 374.98 409.734 381.313 401.916 381.313H401.921Z" fill="#2879EC"></path> <path d="M198.775 300.793C191.717 293.746 180.239 293.736 173.129 300.83L132.567 342.038L116.244 325.715C109.187 318.658 97.6918 318.658 90.6345 325.715C87.2282 329.116 85.3428 333.668 85.3428 338.512C85.3428 343.34 87.2334 347.892 90.6501 351.309L119.806 380.465C123.223 383.897 127.775 385.772 132.619 385.772C137.462 385.772 142.009 383.892 145.442 380.439L198.78 326.387C205.832 319.33 205.832 307.851 198.775 300.794L198.775 300.793Z" fill="#2879EC"></path> <path d="M401.921 534.633H257.468C249.65 534.633 243.317 528.3 243.317 520.483C243.317 512.665 249.651 506.332 257.468 506.332H401.921C409.739 506.332 416.072 512.665 416.072 520.483C416.067 528.3 409.734 534.633 401.916 534.633H401.921Z" fill="#2879EC"></path> <path d="M144.695 430.1C109.471 430.1 80.8311 458.751 80.8311 493.964C80.8311 529.172 109.482 557.828 144.695 557.828C179.903 557.828 208.559 529.177 208.559 493.964C208.554 458.751 179.914 430.1 144.695 430.1ZM144.695 530.236C124.7 530.236 108.424 513.96 108.424 493.965C108.424 473.971 124.7 457.695 144.695 457.695C164.69 457.695 180.966 473.971 180.966 493.965C180.976 513.96 164.7 530.236 144.695 530.236Z" fill="#2879EC"></path> <path d="M426.521 481.153C427.245 472.565 430.031 463.585 434.375 455.872L435.834 453.284L257.46 453.278C249.643 453.278 243.31 459.612 243.31 467.429C243.31 475.247 249.643 481.58 257.46 481.58H426.474C426.5 481.434 426.51 481.293 426.52 481.153L426.521 481.153Z" fill="#2879EC"></path> </svg> 