<svg width="148" height="26" viewBox="0 0 148 26" fill="none" xmlns="http://www.w3.org/2000/svg">
<path d="M0.324701 22.1326L12.0499 2.64869C12.9551 1.14559 15.1867 1.14559 16.0906 2.64869L27.8159 22.1326C28.7303 23.6527 27.6047 25.5671 25.7955 25.5671H2.34505C0.535904 25.5671 -0.589738 23.6538 0.324701 22.1326Z" fill="#FF312C"/>
<path d="M38.4109 0.00187453C33.0867 -0.0851475 28.4623 2.86569 26.24 7.1908C25.6505 8.33791 25.7004 9.69862 26.3665 10.805L34.8657 24.9275C35.1744 25.4406 35.7058 25.7875 36.3093 25.8712C36.9208 25.9559 37.5463 26 38.1823 26C45.5349 26 51.4996 20.2102 51.531 13.0563C51.5635 5.9804 45.6765 0.119411 38.4109 0.00187453Z" fill="#FF312C"/>
<path d="M72.0433 0.433594H53.9251C52.7809 0.433594 52.1206 1.69372 52.7878 2.59897C54.9695 5.55998 56.2506 9.18553 56.2332 13.0789C56.2158 16.9181 54.9486 20.4769 52.8099 23.3916C52.1403 24.3025 52.7948 25.5683 53.9448 25.5683H72.0433C73.676 25.5683 75.0001 24.2788 75.0001 22.6886V3.31323C75.0001 1.7231 73.676 0.433594 72.0433 0.433594Z" fill="#FF312C"/>
<path d="M92.5 21H95.52V16.42H98.62C101.72 16.42 103.54 15 103.54 11.88C103.54 8.68 101.74 7.4 98.62 7.4H92.5V21ZM95.52 13.82V10H98.28C99.86 10 100.52 10.6 100.52 11.92C100.52 13.2 99.88 13.82 98.28 13.82H95.52ZM112.263 19.46H114.883L118.403 11.16V21H121.343V7.4H117.203L113.603 16.04L110.083 7.4H105.923V21H108.743V11.18L112.263 19.46ZM130.581 18.52C128.441 18.52 127.041 16.96 127.041 14.2C127.041 11.4 128.481 9.88 130.621 9.88C132.481 9.88 133.401 10.88 133.781 12.26L136.801 11.78C136.261 8.88 134.301 7.2 130.621 7.2C126.761 7.2 123.981 9.44 123.981 14.2C123.981 18.82 126.621 21.2 130.601 21.2C134.281 21.2 136.241 19.58 136.821 16.6L133.801 16.1C133.461 17.56 132.521 18.52 130.581 18.52Z" fill="#FF312C"/>
</svg>
