<svg enable-background="new 0 0 112.8 18.9" viewBox="0 0 112.8 18.9" xmlns="http://www.w3.org/2000/svg"><g fill="#502682"><path d="m106.4 9.6c0-1.3 0-7.3 0-7.3h-3.3v7.7c0 3.2.5 4.8 1.4 6 1.6 2 4.4 2.6 7 2.7h1.3v-3.1h-1.2c-2.1 0-3.4-.4-4.3-1.5-.6-.7-.9-2.3-.9-4.5"/><path d="m62.5 5.3c2.9 0 5.2 2.3 5.2 5.2s-2.3 5.2-5.2 5.2-5.2-2.3-5.2-5.2 2.3-5.2 5.2-5.2m8.4 13.4v-8.7c-.1-4.3-3.9-7.9-8.4-7.9-4.6 0-8.4 3.8-8.4 8.4s3.8 8.4 8.4 8.4c1.8 0 3.6-.6 5-1.7v1.5z"/><path d="m21.7 9.6c0-1.3 0-7.3 0-7.3h-3.3v7.7c0 3.2.5 4.8 1.4 6 1.6 2 4.4 2.6 7 2.7h1.2v-3.1h-1.2c-2.1 0-3.4-.4-4.3-1.5-.6-.7-.8-2.3-.8-4.5"/><path d="m41 5.8c-1.6-2.1-4-3.4-6.7-3.5h-4.3v16.4h3.3v-13.2h1c2.6.1 5.1 2.3 5.1 4.6v8.6h3.3v-8.8c0-3.6 3.9-4.4 5-4.4h1v13.2h3.3v-16.4h-4.3c-2.6 0-5.1 1.3-6.7 3.5"/><path d="m81.7 15.6c-2.1 0-3.4-.4-4.3-1.5-.6-.7-.8-2.3-.8-4.5 0-.2 0-.7 0-1.2h6.2v-3.3h-6.1c0-1.6 0-2.9 0-2.9h-3.3v7.8c0 3.2.5 4.8 1.4 6 1.6 2 4.4 2.6 7 2.7h1.3v-3.1z"/><path d="m8.4 5.3c2.9 0 5.2 2.3 5.2 5.2s-2.3 5.2-5.2 5.2-5.2-2.3-5.2-5.2 2.3-5.2 5.2-5.2m8.4 13.4v-8.7c-.1-4.3-3.9-7.9-8.4-7.9-4.6 0-8.4 3.7-8.4 8.4 0 4.6 3.8 8.4 8.4 8.4 1.8 0 3.6-.6 5-1.7v1.5z"/><path d="m97.4 13.9c-1 1.2-2.5 1.9-4.2 1.9-2.5 0-4.8-1.8-5.1-4v-.2l13 .1c.1-.4.1-.7.1-1.1 0-2.1-.7-4.1-1.9-5.6-1.5-1.9-3.8-3-6.2-3-4.6 0-8.2 3.8-8.2 8.4 0 4.7 3.6 8.4 8.2 8.4 2.8 0 5.2-1.3 6.8-3.4zm-4.3-8.8c1.1 0 2.2.4 3.1 1.1.8.6 1.3 1.6 1.5 2.6h-9.4c.2-1.1.9-2.2 2-2.9.8-.5 1.9-.8 2.8-.8"/></g><path d="m0 0h112.7v18.9h-112.7z" fill="none"/></svg>