<svg width="128" height="40" viewBox="0 0 128 40" fill="none" xmlns="http://www.w3.org/2000/svg">
<path d="M125.7 16.2C125.4 16.2 125.2 16.4 125.2 16.6V16.7V21.2H119.5V16.7C119.5 16.4 119.3 16.2 119.1 16.2C119.1 16.2 119.1 16.2 119 16.2H117.4C117.1 16.2 117 16.4 117 16.7V28.3C117 28.5 117.2 28.8 117.4 28.8H119C119.3 28.8 119.5 28.6 119.5 28.4C119.5 28.4 119.5 28.4 119.5 28.3V23.5H125.2V28.3C125.2 28.6 125.4 28.8 125.6 28.8H125.7H127.3C127.5 28.8 127.7 28.5 127.7 28.3V16.7C127.7 16.5 127.5 16.2 127.3 16.2H125.7ZM113.5 11C113.8 11 114 11.2 114 11.4V11.5V12.9C114 13.2 113.8 13.4 113.6 13.4C113.6 13.4 113.6 13.4 113.5 13.4H103.8C103.5 13.4 103.3 13.2 103.3 13C103.3 13 103.3 13 103.3 12.9V11.5C103.3 11.2 103.5 11 103.8 11H113.5ZM50.5 11C50.2 11 50 11.2 50 11.5V23.5C50 26.7 51 28.9 55 28.9H55.5C61.2 28.9 62.1 25.1 62.1 23.2C62.1 21.5 61.5 17.4 55.8 17.4H52.6V13.5H60C60.3 13.5 60.5 13.3 60.5 13.1C60.5 13.1 60.5 13.1 60.5 13V11.5C60.5 11.2 60.3 11 60 11H50.5ZM55.9 19.7C58.2 19.7 59.5 21 59.5 23.1C59.5 25.2 58.2 26.5 55.9 26.5H55.1C53.3 26.5 52.6 25.8 52.6 23.8V19.7H55.9ZM92.1 16.4C91.9 16.5 91.8 16.6 91.8 16.8V18.2C91.8 18.3 91.9 18.5 92 18.5C92.1 18.6 92.3 18.6 92.4 18.6C93.5 18.2 94.7 18 95.9 18C97.9 18 98.3 18.6 98.3 20V20.3L95.5 20.5C91 20.8 90.8 23.7 90.8 24.6C90.8 27.2 92.2 28.9 95.6 28.9C96.8 28.9 97.9 28.5 98.9 27.9L99.1 28.4C99.2 28.6 99.3 28.7 99.5 28.7H100.4C100.6 28.7 100.8 28.5 100.8 28.3V20.1C100.8 17.1 99.2 15.7 95.9 15.7C94.6 15.7 93.3 16 92.1 16.4V16.4ZM93.4 24.7C93.4 23.8 93.6 22.9 95.4 22.7L98.2 22.4V25.7C97.4 26.2 96.5 26.5 95.5 26.5C94.6 26.8 93.7 26.3 93.5 25.4C93.4 25.2 93.4 24.9 93.4 24.7ZM72.8 28.5C72.9 28.7 73 28.8 73.2 28.8H74.3C74.5 28.8 74.7 28.6 74.7 28.4V16.7C74.7 16.4 74.5 16.2 74.3 16.2C74.3 16.2 74.3 16.2 74.2 16.2H72.7C72.4 16.2 72.2 16.4 72.2 16.6V16.7V24.9C71.3 25.9 70.1 26.5 68.8 26.6C67.2 26.6 66.5 25.7 66.5 23.5V16.7C66.5 16.4 66.3 16.2 66.1 16.2C66.1 16.2 66.1 16.2 66 16.2H64.5C64.2 16.2 64 16.4 64 16.6V16.7V24.3C64 27.1 65.5 29 68.4 29C69.9 28.9 71.3 28.4 72.5 27.4L72.8 28.5ZM112.1 28.5C112.2 28.7 112.3 28.8 112.5 28.8H113.6C113.8 28.8 114 28.5 114 28.3V16.7C114 16.4 113.8 16.2 113.6 16.2C113.6 16.2 113.6 16.2 113.5 16.2H112C111.7 16.2 111.5 16.4 111.5 16.6V16.7V24.9C110.6 25.9 109.3 26.5 108 26.6C106.4 26.6 105.7 25.7 105.7 23.5V16.7C105.7 16.4 105.5 16.2 105.3 16.2C105.3 16.2 105.3 16.2 105.2 16.2H103.7C103.4 16.2 103.2 16.4 103.2 16.6V16.7V24.3C103.2 27.1 104.7 29 107.6 29C109.1 28.9 110.5 28.4 111.7 27.4L112.1 28.5ZM78.7 24.4C78.5 26.1 78.1 26.5 76.7 26.7C76.5 26.7 76.3 27 76.3 27.2V28.5C76.3 28.7 76.5 29 76.7 29C79.5 29 80.9 27.7 81.2 24.3L81.5 21.3C81.7 19.2 82.1 18.6 84 18.6H86.1V28.4C86.1 28.7 86.3 28.9 86.5 28.9H86.6H88.1C88.4 28.9 88.6 28.7 88.6 28.4V16.7C88.6 16.4 88.4 16.2 88.1 16.2H83.9C80.4 16.2 79.4 18.2 79.1 21.1L78.7 24.4Z" fill="#201600"/>
<path d="M20.0319 40C31.0776 40 40.0319 31.0457 40.0319 20C40.0319 8.9543 31.0776 0 20.0319 0C8.98617 0 0.0318604 8.9543 0.0318604 20C0.0318604 31.0457 8.98617 40 20.0319 40Z" fill="#FFC800"/>
<path d="M22.2738 5.06708C21.143 7.25467 18.5954 9.73162 15.2186 11.6844C11.8432 13.6357 8.42736 14.6086 5.97189 14.4954C4.61363 14.4325 2.99712 13.9768 2.53507 12.5315C2.1791 11.4188 2.60626 9.98183 3.63368 8.46799C3.7984 8.23175 3.9687 7.99971 4.14459 7.77047C5.69549 5.74782 7.65959 3.99075 10.002 2.63766C12.3444 1.28316 14.8459 0.457051 17.3698 0.122971C17.6643 0.0796379 17.9505 0.0488866 18.2283 0.0279192C20.05 -0.106272 21.5046 0.241784 22.2891 1.10424C23.3165 2.2239 22.8978 3.86075 22.2738 5.06708ZM36.6548 8.89432C36.3826 8.48476 36.0992 8.08778 35.8033 7.70477C34.0388 5.41933 31.8458 3.60216 29.4071 2.30498C30.0883 2.75368 30.6383 3.3184 31.0319 4.00193C31.2316 4.3486 31.3851 4.71622 31.494 5.10062C31.91 6.56694 31.6741 8.28068 30.8896 10.0783C29.3149 13.6945 25.5291 17.6531 20.3781 20.6319C15.2256 23.6106 9.90707 24.9162 5.99283 24.4731C4.04688 24.2536 2.44852 23.6008 1.38899 22.5077C1.1112 22.2212 0.869702 21.9053 0.670081 21.5572C0.269444 20.8625 0.0558646 20.0881 0.0139862 19.2578C-0.0907099 22.0576 0.390893 24.905 1.50904 27.6112C1.67516 28.0152 1.85664 28.4163 2.05207 28.8133C2.06184 28.8301 2.07022 28.8469 2.07999 28.8636C2.80448 30.1203 3.87518 31.1058 5.20831 31.82C9.90986 34.3403 17.8654 33.4751 25.3016 29.174C32.735 24.8757 37.4603 18.4121 37.6362 13.0752C37.6864 11.5656 37.3737 10.1482 36.6548 8.89432ZM28.603 34.8925C21.8145 38.8176 14.4495 39.5207 9.74514 37.1667C15.7659 40.7605 23.498 41.0723 29.9975 37.3135C36.4985 33.5547 40.0944 26.6928 39.9981 19.6729C39.6826 24.9316 35.3915 30.9674 28.603 34.8925Z" fill="black"/>
</svg>
