<svg width="1319" height="1053" viewBox="0 0 1319 1053" fill="none" xmlns="http://www.w3.org/2000/svg">
<path fill-rule="evenodd" clip-rule="evenodd" d="M343.414 186.759C343.429 186.728 344.939 184.174 344.939 183.972C344.939 173.961 335.146 157.347 331.207 147.772C326.723 136.857 320.541 124.152 314.017 114.717C303.99 100.252 283.236 64.3789 260.752 64.3789C261.422 91.7354 324.683 175.377 343.414 186.759Z" fill="#F39314"/>
<path fill-rule="evenodd" clip-rule="evenodd" d="M551.584 142.259V146.432C551.584 154.653 555.15 159.994 562.297 161.722C562.873 138.056 583.737 106.059 583.737 75.4953V72.7239C583.737 61.3578 579.751 42.4402 573.009 37.9561C559.463 46.1926 563.994 70.762 560.942 88.1693C557.688 106.713 551.584 119.979 551.584 142.259Z" fill="#F39314"/>
<path fill-rule="evenodd" clip-rule="evenodd" d="M392.397 3.1884C393.533 7.06533 401.879 15.8779 405.242 24.893C409.477 36.2902 409.446 41.5217 412.171 53.3549C418.835 82.3151 416.312 81.7702 432.194 103.319C432.194 117.877 437.02 133.229 441.162 143.848C441.956 145.903 461.278 184.906 461.278 165.895V161.722C461.278 138.476 439.216 102.463 432.225 79.6371C425.701 58.2751 429.547 0.401367 400.042 0.401367C395.573 0.401367 398.391 1.56912 392.397 3.1884V3.1884Z" fill="#F39314"/>
<path fill-rule="evenodd" clip-rule="evenodd" d="M126.056 163.124L127.582 181.201C157.695 181.201 230.5 243.013 254.633 257.696C255.677 255.999 256.159 256.201 256.159 253.523V249.335C256.159 242.235 233.225 227.537 227.012 224.361C221.469 221.527 210.337 204.742 197.974 197.892C185.954 191.243 174.931 183.614 162.739 177.075C159.812 175.502 125.091 155.027 126.056 163.124V163.124Z" fill="#F39314"/>
<path fill-rule="evenodd" clip-rule="evenodd" d="M167.379 345.308H204.109C199.453 329.442 154.067 327.216 129.108 327.231C114.083 327.231 98.4041 325.378 85.8702 323.401C75.5785 321.782 52.2079 316.239 44.9211 316.099C47.0387 339.236 134.48 345.308 167.379 345.308Z" fill="#F39314"/>
<path fill-rule="evenodd" clip-rule="evenodd" d="M0.531006 517.761L11.2432 519.147C18.997 492.772 168.422 485.594 170.446 463.516C135.585 456.135 2.60182 495.2 0.531006 517.761V517.761Z" fill="#F39314"/>
<path fill-rule="evenodd" clip-rule="evenodd" d="M87.7853 633.197C85.9325 635.704 84.718 635.626 84.718 638.756V648.487C84.718 652.208 86.929 652.597 89.3112 654.045C99.385 651.912 142.311 628.869 147.714 623.668C151.015 620.492 152.603 616.74 157.804 611.975C163.533 606.728 165.526 607.117 170.82 602.945C178.932 596.545 191.575 592.108 191.871 580.337C153.553 580.337 136.909 633.197 87.7853 633.197V633.197Z" fill="#F39314"/>
<path fill-rule="evenodd" clip-rule="evenodd" d="M217.888 487.166V508.014C217.888 539.279 226.888 565.436 240.527 584.821C251.613 600.593 274.158 629.009 300.549 629.009H309.736C314.048 629.009 312.569 628.417 314.329 626.237C298.167 622.812 270.873 602.976 261.142 592.497C253.061 583.809 232.695 550.1 235.669 534.545L242.193 484.192L243.906 484.379C244.482 480.004 236.261 475.535 236.261 467.688V453.784C236.261 432.889 262.154 397.483 270.157 378.877C286.443 341.01 273.193 336.153 307.058 305.324C329.821 284.585 420.781 231.429 461.278 231.849L514.855 231.257H520.974C530.036 231.257 532.9 233.001 536.45 238.062C538.63 241.176 549 243.2 553.422 245.457L565.364 235.43C567.933 236.676 577.602 241.798 577.602 236.831C577.602 228.735 570.237 226.135 564.165 222.616C560.958 220.763 558.264 220.094 555.228 218.225C553.001 216.871 548.579 211.795 546.991 211.795C495.392 211.795 448.511 218.023 410.972 231.46C396.211 236.738 365.134 243.9 353.799 250.44C336.812 260.233 325.524 271.848 311.651 284.46C268.273 323.868 217.888 408.646 217.888 487.166V487.166Z" fill="#F39314"/>
<path fill-rule="evenodd" clip-rule="evenodd" d="M199.531 733.328C198.535 737.05 197.99 735.944 197.99 738.887C197.99 743.153 201.867 752.791 205.65 752.791C215.864 752.791 244.217 713.227 254.633 706.906C254.633 686.494 282.177 672.777 282.177 656.833V652.66C249.48 659.589 241.352 724.469 199.531 733.328V733.328Z" fill="#F39314"/>
<path fill-rule="evenodd" clip-rule="evenodd" d="M1113.35 754.176V759.751C1113.35 763.986 1114.83 765.356 1116.42 768.096C1128.05 762.491 1141.63 756.963 1159.28 756.963H1174.59C1178.01 756.963 1177.95 758.069 1180.71 759.751C1192.8 759.751 1202.1 763.207 1212.55 765.589C1226.72 768.828 1232.52 767.442 1249.65 768.034C1272.16 768.812 1292.06 777.827 1318.47 777.827C1317.29 764.873 1304.81 763.581 1291.8 760.327C1268.77 754.581 1283.48 754.176 1254.18 754.176C1228.57 754.176 1194.5 738.887 1163.87 738.887H1162.33C1141.44 738.887 1130.94 753.834 1113.35 754.176V754.176Z" fill="#F39314"/>
<path fill-rule="evenodd" clip-rule="evenodd" d="M78.599 811.21L72.48 827.9H78.599C89.4046 827.9 92.9078 822.778 101.705 820.878L107.684 833.459C114.939 829.037 117.742 823.728 130.634 823.728C133.343 813.187 147.325 811.21 161.26 811.21C189.893 811.21 214.556 816.892 237.756 816.799C270.639 816.659 285.524 829.286 308.21 829.286C307.291 819.337 293.169 811.256 285.291 806.99C273.489 800.575 260.13 803.284 243.875 801.509C215.553 798.426 187.714 793.117 156.667 793.117H136.769C118.069 793.117 101.518 811.21 78.599 811.21V811.21Z" fill="#F39314"/>
<path fill-rule="evenodd" clip-rule="evenodd" d="M442.065 832.836C425.545 785.986 379.972 659.293 387.632 490.327C388.037 476.283 365.04 481.966 363.452 489.315C330.786 655.276 376.749 790.673 391.68 833.506C400.555 847.877 419.488 846.865 437.238 844.872C443.295 843.19 444.509 838.177 442.065 832.836V832.836Z" fill="#78B833"/>
<path fill-rule="evenodd" clip-rule="evenodd" d="M419.13 867.339C485.21 883.127 805.126 917.584 1006.7 855.568C1022.34 851.365 1024.02 864.039 1014.29 868.569C808.925 969.634 485.225 919.546 449.103 911.184C415.83 903.493 408.574 887.176 408.574 873.848C408.574 864.739 419.13 867.339 419.13 867.339V867.339Z" fill="#78B833"/>
<path fill-rule="evenodd" clip-rule="evenodd" d="M1007.97 807.223C1006.04 802.988 996.404 801.68 989.864 804.281C982.92 806.569 977.144 817.935 986.392 827.698C995.641 837.445 1030.69 834.829 1039.94 821.517C1048.02 809.824 1049.15 791.622 1032.23 781.533C1015.66 771.475 992.932 780.256 991.017 791.295C991.017 793.568 993.305 795.826 996.404 795.515C999.487 795.203 1011.43 795.203 1016.43 805.588C1018.36 810.477 1011.06 812.097 1007.97 807.223Z" fill="#78B833"/>
<path fill-rule="evenodd" clip-rule="evenodd" d="M1009.16 739.634C1006.06 736.364 994.893 736.364 989.895 740.599C984.882 744.834 982.173 756.527 995.267 761.727C1012.61 768.22 1044.97 754.565 1045.34 735.414C1045.34 724.017 1042.66 713.632 1025.71 709.085C1006.06 703.869 986.813 717.867 989.506 728.579C989.895 730.868 993.368 732.16 996.046 731.179C998.739 729.871 1007.6 726.633 1016.47 735.414C1021.08 740.272 1014.14 743.526 1009.16 739.634V739.634Z" fill="#78B833"/>
<path fill-rule="evenodd" clip-rule="evenodd" d="M986.081 428.296C1000.34 427.969 1006.56 428.296 1021.21 429.947C1035.45 431.597 1047.77 436.58 1049.33 453.769C1055.1 524.223 1041.6 646.635 1039.69 678.382C1038.93 689.312 1009.64 691.943 1010.4 672.107C1011.57 615.526 1007.71 487.167 1001.93 451.776C1001.15 443.508 996.918 439.88 990.378 439.88C983.823 439.88 993.804 439.227 987.249 438.884C980.694 438.23 979.915 428.966 986.081 428.296V428.296Z" fill="#78B833"/>
<path fill-rule="evenodd" clip-rule="evenodd" d="M703.189 156.055C541.526 240.46 423.147 338.161 325.882 422.364C291.846 451.822 457.822 387.394 714.633 386.662C931.648 386.07 1118.19 430.818 1062.19 388.857C955.579 309.046 911.345 241.596 703.189 156.055V156.055Z" fill="#78B833"/>
<path fill-rule="evenodd" clip-rule="evenodd" d="M542.102 549.711C541.884 548.404 541.246 545.788 540.172 541.864C539.487 539.03 539.284 536.96 539.487 535.667C539.72 534.141 540.421 531.417 541.62 527.493C542.819 523.569 543.535 520.409 543.753 518.027C543.955 513.215 543.753 506.256 543.099 497.116C542.445 487.089 542.102 480.005 542.102 475.878C542.102 462.364 544.407 451.48 548.984 443.213C551.6 438.635 556.691 436.346 564.321 436.346C569.116 436.346 573.694 437.436 578.053 439.6C583.939 445.05 586.539 449.939 585.901 454.298C585.465 457.132 583.612 464.979 580.342 477.825C577.727 487.852 576.419 495.808 576.419 501.678C576.419 508.217 577.991 513.869 581.152 518.68C584.328 523.46 591.008 525.858 601.253 525.858C606.266 525.858 609.318 524.566 610.408 521.935C613.46 513.651 614.986 502.674 614.986 488.942C614.986 486.326 614.986 482.402 614.986 477.186C614.986 471.737 614.986 467.704 614.986 465.088C614.986 456.805 615.406 449.752 616.262 443.867C617.601 435.132 623.518 430.788 634.09 430.788C641.205 430.788 645.643 432.859 647.387 436.985C650.361 445.05 651.886 454.407 651.886 465.088C651.886 470.974 651.015 481.437 649.286 496.462C647.963 509.728 647.542 520.191 647.963 527.82C648.181 529.346 649.987 531.915 653.366 535.512C656.729 539.093 658.535 542.082 658.768 544.48C658.971 546.442 657.928 548.559 655.639 550.848C653.366 553.137 652.12 554.616 651.886 555.27C651.014 560.268 650.579 565.624 650.579 571.276C650.579 579.326 652.12 591.377 655.156 607.383C658.208 623.373 659.734 635.533 659.734 643.817C656.682 644.471 653.848 644.797 651.248 644.797C640.785 644.797 633.047 639.348 628.033 628.449C624.763 621.474 622.07 609.609 619.874 592.84C617.492 574.982 615.203 563.055 613.024 557.061C610.828 551.066 605.176 548.077 596.021 548.077C588.19 548.077 583.503 549.602 581.977 552.654C578.925 557.232 577.4 562.884 577.4 569.641C577.4 574.001 578.271 581.023 580.015 590.707C581.759 600.423 582.631 607.679 582.631 612.443C582.631 618.095 581.759 623.233 580.015 627.795C566.937 628.247 557.454 623.762 551.6 614.405C547.458 607.429 544.952 596.748 544.064 582.377C543.41 571.494 542.787 560.595 542.102 549.711V549.711ZM738.16 481.748C753.185 481.748 766.342 489.051 777.677 503.655C787.05 515.831 791.736 529.673 791.736 545.149C791.736 557.123 788.902 568.489 783.235 579.279C777.567 590.053 769.72 598.819 759.724 605.577C748.171 613.206 736.291 617.021 724.1 617.021C712.765 617.021 702.645 613.751 693.723 607.211C675.646 594.133 666.6 577.597 666.6 557.559C666.6 540.12 674.276 523.133 689.628 506.598C704.996 490.032 721.157 481.748 738.16 481.748V481.748ZM702.52 562.775C706.662 581.941 714.618 591.532 726.389 591.532C729.005 591.532 731.823 590.894 734.874 589.586C751.441 581.941 759.724 567.804 759.724 547.096C759.724 542.082 759.179 537.178 758.089 532.398C755.474 522.371 746.754 517.373 731.932 517.373C729.752 517.373 727.697 517.575 725.735 518.027C720.721 519.101 715.334 525.485 709.573 537.131C703.781 548.793 701.43 557.341 702.52 562.775V562.775ZM801.857 501.04C802.729 491.231 803.492 484.582 804.146 481.11C805.453 473.683 807.633 467.595 810.685 462.8C809.595 462.364 807.524 461.819 804.472 461.165C801.421 460.511 799.35 459.857 798.26 459.203C795.862 457.023 794.663 453.972 794.663 450.063C794.663 442.434 797.061 437.654 801.857 435.677C817.551 429.604 833.666 426.553 850.233 426.553C889.204 426.553 921.325 441.017 946.595 469.993C946.813 473.045 946.922 475.879 946.922 478.479C946.922 502.207 933.844 522.044 907.702 537.956C896.616 544.698 872.762 554.725 836.173 568.022C835.519 573.44 836.064 580.633 837.808 589.586C839.77 599.582 840.735 606.449 840.735 610.154C840.735 613.206 840.424 616.04 839.77 618.655C838.228 623.435 835.239 627.468 830.77 630.738C826.302 634.007 821.241 635.642 815.589 635.642C813.41 635.642 811.23 635.424 809.05 634.988C809.05 634.988 806.652 632.482 801.857 627.468C799.459 609.173 798.26 589.898 798.26 569.641C798.26 550.038 799.459 527.166 801.857 501.04V501.04ZM837.808 493.519C837.808 496.353 837.263 500.868 836.173 507.065C835.067 513.293 834.538 517.575 834.538 519.988C834.538 525.422 836.266 528.754 839.77 529.953C843.257 531.152 846.963 531.744 850.856 531.744C863.062 531.744 875.254 526.948 887.461 517.373C899.652 507.781 907.266 496.898 910.333 484.691C884.845 465.524 864.261 455.933 848.567 455.933C844.456 455.933 840.299 456.478 836.173 457.568C835.955 457.568 836.936 458.658 839.116 460.838C841.934 463.672 843.351 466.178 843.351 468.358C843.351 471.41 842.417 475.661 840.564 481.11C838.711 486.544 837.808 490.686 837.808 493.519V493.519Z" fill="#78B833"/>
<path fill-rule="evenodd" clip-rule="evenodd" d="M497.323 754.441C493.181 724.157 491.111 685.824 491.111 639.441C491.111 635.938 493.228 632.621 497.479 629.461C501.714 626.331 506.26 624.618 511.025 624.416C521.27 623.98 526.408 630.177 526.408 643.038C526.408 645.218 526.237 648.814 525.894 653.828C525.583 658.826 525.411 662.516 525.411 664.914C525.411 674.723 527.264 679.627 530.985 679.627C534.224 679.627 538.148 677.338 542.725 672.761C544.033 671.889 549.701 666.766 559.728 657.393C567.341 650.2 573.445 646.634 577.991 646.634C581.946 646.634 585.916 648.098 589.933 651.025C593.966 653.983 595.975 656.957 595.975 660.009C595.975 660.881 595.757 661.644 595.336 662.298C590.307 670.799 580.856 679.067 566.905 687.148C549.7 696.941 539.019 703.699 534.878 707.389C534.442 708.058 534.224 708.821 534.224 709.693C534.224 712.293 536.731 716.871 541.744 723.41C548.72 732.768 552.207 737.563 552.207 737.781C561.58 746.921 570.938 756.076 580.311 765.231C590.977 776.551 597.5 787.014 599.914 796.605C600.552 799.189 598.871 801.914 594.838 804.748C590.821 807.582 586.29 808.998 581.292 808.998C577.368 808.998 573.99 807.8 571.156 805.402C565.94 801.26 558.42 792.79 548.611 779.929C535.968 763.378 529.21 754.55 528.37 753.46C527.716 756.076 527.358 759.019 527.358 762.288C527.358 776.224 530.627 795.375 537.167 819.788C539.564 828.71 539.128 835.685 535.859 840.683C532.807 846.802 528.12 849.854 521.83 849.854C518.981 849.854 516.054 849.076 513.002 847.565C507.988 845.152 505.497 841.68 505.497 837.102C505.497 823.167 502.757 795.608 497.323 754.441V754.441ZM678.636 679.627C693.676 679.627 706.848 686.914 718.183 701.519C727.557 713.71 732.243 727.536 732.243 743.013C732.243 754.986 729.378 766.368 723.742 777.142C718.074 787.932 710.243 796.683 700.2 803.44C688.663 811.069 676.798 814.884 664.607 814.884C653.257 814.884 643.152 811.614 634.214 805.075C616.138 792.027 607.091 775.461 607.091 755.422C607.091 737.984 614.783 720.997 630.135 704.461C645.472 687.895 661.664 679.627 678.636 679.627V679.627ZM643.027 760.654C647.169 779.82 655.125 789.411 666.88 789.411C669.48 789.411 672.314 788.757 675.366 787.45C691.932 779.82 700.2 765.667 700.2 744.959C700.2 739.961 699.655 735.057 698.581 730.261C695.965 720.249 687.246 715.22 672.423 715.22C670.243 715.22 668.188 715.454 666.242 715.905C661.228 716.98 655.826 723.348 650.065 735.01C644.288 746.641 641.953 755.204 643.027 760.654V760.654ZM914.21 833.506C905.273 835.25 899.932 835.25 898.204 833.506C890.356 818.029 884.689 794.721 881.201 763.596C877.293 730.915 872.404 707.591 866.519 693.671C861.941 701.083 857.255 711.982 852.459 726.337C847.025 742.67 842.666 754.005 839.396 760.327C838.96 761.417 838.96 763.269 839.396 765.87C839.832 768.501 839.832 770.338 839.396 771.428C834.6 780.801 827.843 785.488 819.124 785.488C816.726 785.488 814.453 785.052 812.289 784.18C809.019 783.308 806.076 781.44 803.46 778.621C800.845 775.788 799.537 772.845 799.537 769.793C796.921 745.177 791.58 732.877 783.531 732.877C781.787 732.877 780.899 734.73 780.899 738.435C780.899 739.51 781.024 741.253 781.242 743.651C781.46 746.049 781.553 747.793 781.553 748.883C781.553 751.28 781.024 754.768 779.934 759.346C778.844 763.923 778.299 767.52 778.299 770.12C778.299 772.3 778.455 775.788 778.797 780.583C779.109 785.379 779.28 788.866 779.28 791.046C779.28 793.21 779.171 795.172 778.953 796.916C778.517 800.824 776.182 803.876 771.916 806.056C767.696 808.236 762.932 809.325 757.7 809.325C751.394 809.325 746.817 807.8 743.999 804.748C739.001 799.516 736.478 792.79 736.478 784.507C736.478 778.185 738.222 769.264 741.694 757.711C745.618 743.978 747.922 734.823 748.576 730.261C750.304 708.899 753.558 677.011 758.354 634.537C759.242 627.795 764.348 624.416 773.722 624.416C780.261 624.416 784.621 626.269 786.8 629.959C793.978 639.55 799.755 652.722 804.114 669.491C808.038 683.878 811.837 698.249 815.543 712.636C819.233 716.341 821.303 717.945 821.771 717.525C826.099 711.203 831.331 699.775 837.434 683.224C843.538 666.657 848.753 655.214 853.113 648.908C860.306 638.46 869.337 633.229 880.22 633.229C883.272 633.229 886.651 633.665 890.357 634.537C897.347 654.778 903.747 685.17 909.632 725.683C915.736 767.52 922.057 798.099 928.596 817.5C928.799 818.59 928.923 819.57 928.923 820.442C928.923 827.184 924.019 831.559 914.21 833.506V833.506Z" fill="#78B833"/>
<path fill-rule="evenodd" clip-rule="evenodd" d="M846.029 193.921C859.263 193.688 898.173 193.921 911.765 195.104C925 196.272 936.459 199.791 937.892 212.013C943.248 262.009 930.745 348.858 928.939 371.403C928.238 379.157 901.038 381.057 901.754 366.935C902.828 326.811 899.247 235.711 893.875 210.597C893.159 204.727 889.22 202.126 883.132 202.126C877.044 202.126 853.191 201.675 847.103 201.441C841.015 200.974 840.299 194.388 846.029 193.921Z" fill="#78B833"/>
<path fill-rule="evenodd" clip-rule="evenodd" d="M369.742 997.223V1026.11H371.626C375.347 1026.11 377.73 1024.94 378.773 1022.63C379.738 1020.56 380.221 1016.95 380.221 1011.83C380.221 1007.13 379.878 1003.9 379.209 1002.13C378.025 998.843 375.565 997.223 371.844 997.223H369.742ZM349.657 1038.25V952.382H374.413C379.551 952.382 383.631 952.6 386.682 953.051C393.222 954.017 397.208 957.131 398.625 962.424C399.279 964.947 399.637 968.621 399.637 973.464C399.637 978.586 398.765 982.416 397.052 984.939C395.277 987.694 392.023 989.89 387.368 991.525V991.743C389.89 992.194 391.976 992.833 393.596 993.642C396.71 995.199 398.796 998.22 399.839 1002.67C400.431 1005.27 400.727 1009.13 400.727 1014.27C400.727 1024.83 398.687 1031.59 394.608 1034.56C391.4 1037.02 384.269 1038.25 373.199 1038.25H349.657ZM369.742 964.308V985.499H372.296C375.721 985.499 377.901 984.736 378.82 983.164C379.738 981.591 380.221 978.617 380.221 974.226C380.221 970.287 379.8 967.749 378.991 966.55C377.948 965.056 375.565 964.308 371.844 964.308H369.742ZM496.747 1038.25H477.113L464.968 994.748V1038.25H444.899V952.382H464.968V991.416L477.658 952.382H496.747L483.388 990.31L496.747 1038.25ZM524.539 964.962L519.728 1004.12H528.541L524.742 964.962H524.539ZM531.873 1038.25L529.755 1017.17H518.171L515.493 1038.25H498.646L512.597 952.382H538.692L551.631 1038.25H531.873ZM553.422 1038.25L566.796 990.31L553.422 952.382H572.37L584.966 991.416H585.293V952.382H604.6V991.416L617.29 952.382H636.394L623.113 990.31L636.394 1038.25H616.729L604.6 994.748V1038.25H585.293V994.748H584.966L572.931 1038.25H553.422ZM684.007 1038.25H652.353V1052.53H637.406V1025.22C640.364 1025.22 642.311 1023.66 643.214 1020.64C644.023 1017.87 644.428 1013.12 644.428 1006.36V952.382H693.162V1025.22H698.954V1052.53H684.007V1038.25ZM660.169 1025.22H673.093V965.429H663.268V1007.36C663.268 1015.99 662.24 1021.92 660.169 1025.22ZM724.038 996.538V1025.78H728.724C732.57 1025.78 734.532 1021.34 734.532 1012.48V1009.48C734.532 1003.67 734.018 1000.07 733.021 998.656C732.009 997.239 730.406 996.538 728.164 996.538H724.038ZM724.038 952.382V983.491C732.663 983.491 735.871 983.491 733.613 983.491C737.428 983.568 740.604 983.989 743.22 984.736C748.794 986.262 752.282 990.435 753.698 997.192C754.212 999.621 754.492 1005.54 754.492 1014.9C754.492 1023.8 752.92 1029.92 749.79 1033.24C746.676 1036.58 740.666 1038.25 731.729 1038.25H704.077V952.382H724.038ZM781.024 952.382V1038.25H761.047V952.382H781.024ZM789.93 952.382H808.801V997.442L821.817 952.382H840.439V1038.25H821.817V993.3L808.801 1038.25H789.93V952.382ZM815.247 948.692C804.379 948.692 798.478 944.348 797.512 935.645H809.346C809.346 939.739 811.307 941.764 815.247 941.764C819.108 941.764 821.039 939.739 821.039 935.645H832.872C831.907 944.348 826.037 948.692 815.247 948.692ZM926.245 1038.25H894.56V1052.53H879.613V1025.22C882.587 1025.22 884.518 1023.66 885.405 1020.64C886.23 1017.87 886.635 1013.12 886.635 1006.36V952.382H935.369V1025.22H941.177V1052.53H926.245V1038.25ZM902.361 1025.22H915.3V965.43H905.49V1007.36C905.49 1015.99 904.447 1021.92 902.361 1025.22ZM976.49 970.879C976.49 966.94 974.73 964.963 971.149 964.963C967.646 964.963 965.902 966.94 965.902 970.879V1019.74C965.902 1023.66 967.646 1025.65 971.149 1025.65C974.73 1025.65 976.49 1023.66 976.49 1019.74V970.879ZM996.684 975.348V1015.27C996.684 1024.66 994.753 1031.07 990.892 1034.56C987.248 1037.77 980.678 1039.36 971.149 1039.36C961.636 1039.36 955.096 1037.77 951.515 1034.56C947.654 1031.07 945.723 1024.66 945.723 1015.27V975.348C945.723 965.99 947.654 959.56 951.515 956.072C955.096 952.849 961.636 951.261 971.149 951.261C980.678 951.261 987.248 952.849 990.892 956.072C994.753 959.56 996.684 965.99 996.684 975.348ZM1052.67 952.382H1081.45V1038.25H1063.49V969.447L1051.54 1038.25H1034.05L1022.13 967.765V1038.25H1006.27V952.382H1035.61L1044.08 1012.61L1052.67 952.382Z" fill="#78B833"/>
</svg>
