<svg width="1492" height="231" viewBox="0 0 1492 231" fill="none" xmlns="http://www.w3.org/2000/svg">
<path d="M3.32 196.6L104.36 24.2C112.16 10.9 131.39 10.9 139.18 24.2L240.22 196.6C248.1 210.05 238.4 226.99 222.81 226.99H20.73C5.12999 226.98 -4.57 210.05 3.32 196.6Z" fill="#FF312C"/>
<path d="M331.52 0.769974C285.64 -2.6064e-05 245.79 26.11 226.64 64.38C221.56 74.53 221.99 86.57 227.73 96.36L300.97 221.32C303.63 225.86 308.21 228.93 313.41 229.67C318.68 230.42 324.07 230.81 329.55 230.81C392.91 230.81 444.31 179.58 444.58 116.28C444.86 53.68 394.13 1.81997 331.52 0.769974Z" fill="#FF312C"/>
<path d="M621.34 4.59H465.21C455.35 4.59 449.66 15.74 455.41 23.75C474.21 49.95 485.25 82.03 485.1 116.48C484.95 150.45 474.03 181.94 455.6 207.73C449.83 215.79 455.47 226.99 465.38 226.99H621.34C635.41 226.99 646.82 215.58 646.82 201.51V30.07C646.82 16 635.41 4.59 621.34 4.59Z" fill="#FF312C"/>
<path d="M1299.1 143.02C1283.5 143.02 1273.5 130.62 1273.5 115.22C1273.5 99.82 1283.1 87.22 1299.1 87.22C1315.1 87.22 1324.5 99.82 1324.5 115.22C1324.5 130.62 1314.7 143.02 1299.1 143.02ZM1305.7 58.82C1290.9 58.82 1279.3 65.02 1273.1 73.02V61.82H1244.1V201.82H1274.5V158.02C1281.1 165.82 1293.1 171.42 1305.1 171.42C1336.7 171.42 1355.3 148.22 1355.3 114.82C1355.3 83.42 1336.3 58.82 1305.7 58.82ZM1459.3 61.42L1431.1 133.62H1427.1L1399.3 61.42H1364.1L1406.5 159.82L1412.1 169.02L1409.9 172.22H1375.3V201.82H1395.3C1420.7 201.82 1436.7 190.42 1447.5 165.02L1491.7 61.42H1459.3V61.42ZM1202.7 132.42C1191.9 132.42 1183.1 141.22 1183.1 152.02C1183.1 163.02 1191.9 171.82 1202.7 171.82C1213.7 171.82 1222.5 163.02 1222.5 152.02C1222.5 141.22 1213.7 132.42 1202.7 132.42ZM1126.7 61.42L1097.3 104.42H1094.1L1065.1 61.42H1029.1V169.02H1059.1V109.82H1063.3L1088.1 146.42H1102.5L1127.7 109.82H1131.5V169.02H1161.5V61.42H1126.7V61.42ZM952.5 142.22C936.9 142.22 927.3 130.22 927.3 115.22C927.3 100.42 936.7 88.42 952.5 88.42C968.5 88.42 977.9 100.42 977.9 115.22C977.9 130.22 968.1 142.22 952.5 142.22ZM952.5 58.82C917.1 58.82 895.9 84.22 895.9 115.22C895.9 146.42 917.9 171.62 952.5 171.62C987.3 171.62 1009.1 146.42 1009.1 115.22C1009.1 84.22 988.1 58.82 952.5 58.82ZM819.9 88.82L839.3 140.22H797.1L816.3 88.82H819.9V88.82ZM870.7 140.22L840.5 61.42H794.7L764.5 140.22H747.1V194.02H776.1V169.02H857.7V194.02H886.9V140.22H870.7Z" fill="#FF312C"/>
</svg>
