<svg enable-background="new 0 0 272.9 80.9" viewBox="0 0 272.9 80.9" xmlns="http://www.w3.org/2000/svg"><path d="m138.3 37.4c-.1.1-.1.2-.1.3-.7 0-2.7-.1-4.6 0-.1-.1-.2-.1-.3-.1-1-2.8-2.3-5.5-3.9-8-.6.5-1.2.9-1.8 1.3-.3.1-.6.3-.9.5 0 2 .2 4.1.4 6.1-.1.1-.1.1-.2.2-.4 0-1.3-.1-2-.1s-1.4 0-1.8.1c0-.1-.1-.1-.2-.2 0 0 .3-4.4.3-8.7s-.3-8.7-.3-8.7c.1-.1.1-.1.2-.2.3 0 1.1.1 1.8.1s1.5 0 1.8-.1c0 .1.1.1.2.2 0 0-.2 3.4-.3 8 .9-.6 1.7-1.3 2.4-2.2 1.5-1.7 2.7-3.7 3.4-5.9.1 0 .2-.1.2-.2 1.3.1 2.6.1 3.9 0 0 .1.1.1.1.2-1.3 2.8-3 5.3-5.1 7.5 1.1 1.5 3.7 5.6 6.8 9.9zm70.7-17.2-.1-.2c-.3 0-1.1.1-1.8.1s-1.5 0-1.8-.1l-.1.2s.2 3.4.2 7.2c-1 0-2.2.1-3.5.1s-2.5 0-3.4-.1c0-4.2.2-7.2.2-7.2-.1-.1-.1-.1-.1-.2-.3 0-1.1.1-1.8.1s-1.5 0-1.8-.1c0 .1-.1.1-.1.2 0 0 .2 4.3.2 8.7s-.3 8.7-.3 8.7c.1.1.1.1.2.2.3 0 1.1-.1 1.8-.1s1.6 0 2 .1l.2-.2c-.3-2.4-.4-4.8-.4-7.1h6.9c0 3.8-.2 7.2-.2 7.2.1.1.1.1.2.2.3 0 1.1-.1 1.8-.1s1.6 0 2 .1c0-.1.1-.1.2-.2-.3-2.9-.5-5.8-.4-8.6-.4-5.2-.1-8.9-.1-8.9zm-63.8 2.7v4.6c0 3.5-.2 9-.3 10.1.1 0 .1.1.2.2.3 0 1.1-.1 1.7-.1s1.5 0 1.8.1c0-.1.1-.1.1-.2-.1-1.2-.3-6.6-.3-10v-4.5c3.1 0 4.4.1 4.8.1l.1-.1c-.1-.5-.2-1.9-.2-2.9l-.1-.1c-.6 0-3.1.2-6.3.2s-5.6-.1-6.3-.2c-.1.1-.1.1-.2.2 0 1-.2 2.4-.2 2.8.1 0 .1.1.1.1.8-.2 2.1-.3 5.1-.3zm116.1-5.5c2.3-.2 4.5-.2 6.8 0 0-.1.1-.1.1-.1.1-1 .3-1.9.6-2.9l-.1-.1c-.3 0-1.3.1-4 .1s-3.7-.1-4-.1l-.1.1c.3.9.4 1.9.6 2.9 0 0 0 0 .1.1zm-33.2 2.8-.1-.2c-.3 0-1.1.1-1.8.1s-1.5 0-1.8-.1l-.1.2s.2 3.4.2 7.2c-1 0-2.1.1-3.4.1s-2.5 0-3.4-.1c0-4.2.2-7.2.2-7.2-.1-.1-.1-.1-.1-.2-.3 0-1.1.1-1.8.1s-1.5 0-1.8-.1c0 .1-.1.1-.1.2 0 0 .3 4.4.3 8.7s-.3 8.7-.3 8.7c.1.1.1.1.2.2.3 0 1.1-.1 1.8-.1s1.6 0 2 .1l-.1-.3c-.3-2.4-.4-4.8-.4-7.1h6.9c0 3.7-.2 7.2-.2 7.2.1.1.1.1.2.2.3 0 1.1-.1 1.8-.1s1.6 0 2 .1c0-.1.1-.1.2-.2-.3-2.9-.5-5.8-.4-8.6-.3-5.1 0-8.8 0-8.8zm-68.5 40.1c.2.9.4 1.9.6 2.8-.1.1-.1.1-.2.2-1 0-5.5-.1-10.1-.1s-9 .1-10.1.1c0-.1-.1-.1-.2-.2.3-.9.5-1.8.6-2.8.1-.1.2-.1.3-.2h1.8c2.9-5.6 5.4-11.2 6-12.8-.2-.5-.3-.8-.4-1 .1-.1.1-.2.2-.3 1-.3 2.1-.7 3.1-1.1.1.1.2.1.3.1.3 1 1.4 3.9 2.7 7.4.9 2.3 2.2 5.5 3.2 7.7h1.8c.2.1.3.2.4.2zm-9.6 0h3.3c-.6-1.8-1.4-4.2-2.2-6.2-.4-1-.8-2-1.1-2.8-1.6 3.4-3.1 6.8-4.1 9zm-68.6-15.1c-1.6.1-3.2.2-4.8.1h-3.1c-.7 0-1.5 0-1.8-.1 0 .1-.1.1-.2.2 0 0 .3 4.3.3 8.7s-.3 8.7-.3 8.7c.1.1.1.1.2.2.3 0 1.1-.1 1.8-.1s1.6 0 2 .1c0-.1.1-.2.2-.2-.3-2.9-.5-5.7-.4-8.6 0-2.3 0-4.4.1-6 2.8 0 5.3.1 5.9.2l.2-.2c0-1 .2-2.3.2-2.8-.2-.1-.3-.1-.3-.2zm30.4-10.5c0-1.4-.1-3-.1-4.6 2.1 0 3.5.1 4 .2 0-.1.1-.1.2-.1-.1-.5-.2-1.9-.2-2.9-.1 0-.1-.1-.2-.1-.5.1-1.9.2-3.7.3v-4.4c3.9 0 5.7.1 6.2.1 0-.1.1-.1.2-.2-.1-.5-.2-1.9-.2-2.8-.1 0-.1-.1-.2-.2-.7 0-3.2.2-6 .2h-1.2c-.7 0-1.6-.1-2-.1-.1.1-.2.1-.3.2 0 1 .2 5.3.2 8.6s-.2 7.6-.2 8.6c.1.1.1.1.2.2l1.4-.1c1.1-.1 2.1 0 2.1 0 4.1 0 5.9.1 6.4.1l.1-.1c0-1.3.3-3 .3-3-.1-.1-.1-.1-.2-.2-.7 0-3.9.3-6.8.3zm57.8-8.5c0 4.9-3.7 6.3-6.5 6.3-.8 0-1.6-.1-2.3-.3.1 2.4.1 4.6.1 5.3-.1.1-.1.1-.1.2-.3 0-1.1-.1-1.8-.1s-1.4 0-1.8.1c0-.1-.1-.1-.2-.2.1-1 .2-5.3.2-8.7s-.2-7.6-.2-8.5c0-.1.1-.1.1-.2.2 0 .5 0 .8-.1 1.3-.2 2.7-.3 4.1-.3 4.8.1 7.6 2.8 7.6 6.5zm-3.7.1c-.2-3.8-3.3-3.9-5.3-3.5 0 1.1 0 2.6.1 4.4 0 .7 0 1.5.1 2.3 3.5 1.1 5.2-.6 5.1-3.2zm85.8-6.1c-.1-.1-.1-.1-.1-.2-.3 0-1.1.1-1.8.1s-1.5 0-1.8-.1c0 .1-.1.1-.1.2 0 0 .3 4.4.3 8.7s-.3 8.7-.3 8.7c.1.1.1.1.2.2.3 0 1.1-.1 1.8-.1s1.6 0 2 .1l.2-.2c-.3-2.9-.5-5.8-.4-8.6-.3-5.1 0-8.8 0-8.8zm-6.3 11.3c0 3.7-2.8 6.3-7.5 6.3-1.4 0-2.9-.1-3.8-.2-.5 0-1-.1-1.3-.1 0-.1-.1-.1-.1-.2 0-.9.3-5.1.3-8.5s-.2-7.7-.3-8.7c.1-.1.1-.1.2-.2.3 0 1.1.1 1.8.1s1.5 0 1.8-.1c0 .1.1.1.1.2 0 .6-.1 2.9-.1 5.3h.1c.8-.2 1.6-.3 2.5-.3 2.6 0 6.2 1.5 6.3 6.4zm-9.1-3.2s0 1.4-.1 2.2c0 1.8-.1 3.3-.1 4.4h.3c2 .4 5.1.3 5.3-3.5.1-2.6-1.7-4.4-5.4-3.1zm-45.2.2c.2 5.1-3.8 9.4-8.8 9.6-5.1.2-9.4-3.8-9.6-8.8-.2-5.1 3.8-9.4 8.8-9.6h.1c5.1-.2 9.3 3.7 9.5 8.8zm-3.9-.9c-.5-3.1-3.4-5.1-6.5-4.6-3 .8-4.9 3.8-4.1 6.8.5 3.1 3.4 5.1 6.4 4.6h.1c3-.7 4.9-3.7 4.1-6.8zm-48.4 26.3c.2 5.1-3.7 9.4-8.8 9.6s-9.4-3.7-9.6-8.8 3.7-9.4 8.8-9.6h.1c5-.2 9.3 3.7 9.5 8.8zm-3.9-.8c-.5-3.1-3.4-5.1-6.5-4.6-3 .8-4.9 3.8-4.1 6.8.5 3 3.4 5.1 6.5 4.6 2.9-.8 4.8-3.8 4.1-6.8zm-33.8.8c.2 5.1-3.7 9.4-8.8 9.6s-9.4-3.7-9.6-8.8 3.7-9.4 8.8-9.6h.1c5.1-.2 9.3 3.7 9.5 8.8zm-3.9-.8c-.5-3-3.4-5.1-6.5-4.5-3 .8-4.9 3.8-4.1 6.8.5 3 3.4 5.1 6.5 4.6 3-.9 4.9-3.9 4.1-6.9zm-20.2-15.3c4.7.2 8.8-3.4 9-8.1 0-.3 0-.6 0-.9 0-5-4-9-9-9-.1 0-.1 0-.2 0-1.7 0-3.4.4-4.8 1.3v3.1c.1 0 .2 0 .2.1.8-.7 1.7-1.2 2.8-1.5 3.1-.8 6.3 1.1 7.1 4.3 0 .1 0 .2.1.2-2.8 0-5.8-.2-6.4-.3-.1.1-.1.1-.2.1 0 1-.2 2.4-.2 2.8.1 0 .1.1.1.1.6 0 3.6-.2 6.8-.2-.2 2.2-1.6 4.1-3.7 4.8-1.7.5-3.5.3-5-.6-.6-.4-1.2-.9-1.7-1.4l-.2.1v1.7c0 .8-.1 1.7-.1 1.7 1.5 1.2 3.4 1.8 5.4 1.7zm195.4-10.4c0-3.3.1-6.4.1-7.2-.1-.1-.1-.1-.2-.2-.3 0-.9.1-1.6.1s-1.3 0-1.6-.1h-.1c-.4.7-3.1 4.8-4.7 7.1-1 1.4-2.7 3.7-4 5.5v-2.4c0-3.4.2-9 .3-10.1-.1 0-.1-.1-.2-.2-.4 0-1.1.1-1.7.1s-1.5 0-1.8-.1c0 .1-.1.1-.1.2 0 1.1.3 6.6.3 10s-.1 6.4-.1 7.2c.1.1.1.1.2.2.3 0 .9-.1 1.6-.1s1.3 0 1.6.1l.1-.1h.1c.4-.6 2.4-3 5.6-7.8 1.1-1.7 2.4-3.4 3.2-4.4v2.1c0 3.5-.2 9-.3 10.1.1 0 .1.1.2.2.4 0 1.1-.1 1.7-.1s1.5 0 1.8.1c0-.1.1-.1.1-.2-.3-1.1-.5-6.6-.5-10zm-167.3 10c-.6-1.1-3.3-6.6-4.7-10.3-1.4-3.4-2.5-6.4-2.9-7.3-.1 0-.2 0-.3-.1-1 .4-2 .8-3.1 1.1 0 .1-.1.2-.1.3.1.1.1.3.3.6-2 5.4-4.4 10.6-7.1 15.7l.2.2c1.4-.1 2.7-.1 4.1 0 0 0 1.5-4.6 4.4-12.3l1.4 3.4c1.6 3.9 3.3 8.9 3.3 8.9s1-.1 2.1-.1c.8 0 2 0 2.4.1-.1-.1 0-.1 0-.2zm12.3 14.1c0 4.9-3.7 6.3-6.5 6.3-.8 0-1.6-.1-2.3-.3.1 2.4.1 4.6.1 5.3-.1.1-.1.1-.2.2-.3 0-1.1-.1-1.8-.1s-1.4 0-1.8.1c0-.1-.1-.1-.2-.2 0-1 .3-5.3.3-8.7s-.2-7.6-.3-8.5c0-.1.1-.1.1-.2l.8-.1c1.3-.2 2.7-.3 4.1-.3 4.9.1 7.7 2.8 7.7 6.5zm-3.6.1c-.2-3.8-3.3-3.9-5.3-3.5 0 1.1 0 2.6.1 4.4v2.3c3.5 1.1 5.3-.6 5.2-3.2z" fill="#001e35"/><path d="m54.8 54c0-5.1-12.3-9.3-27.4-9.3s-27.4 4.2-27.4 9.3c.3 15.1 12.8 27.2 27.9 26.9 14.8-.2 26.6-12.1 26.9-26.9z" fill="#fe403c"/><path d="m51.8 54c0 3.9-10.9 7-24.4 7s-24.3-3.1-24.3-7 10.9-7 24.3-7 24.4 3.2 24.4 7" fill="#bf0"/><path d="m54.8 26.9c-.3-15.1-12.8-27.2-27.9-26.9-14.7.3-26.6 12.2-26.9 26.9 0 5.1 12.3 9.3 27.4 9.3s27.4-4.2 27.4-9.3z" fill="#fe403c"/></svg>