<svg width="127" height="34" viewBox="0 0 127 34" fill="none" xmlns="http://www.w3.org/2000/svg">
<path d="M48.0566 22.5633H51.296V30.5461H53.9685V22.5633H57.2079V20.2988H48.0566V22.5633Z" fill="#0F198C"/>
<path d="M102.088 20.2988H99.5611C99.5611 23.0846 98.1196 24.2576 95.6901 24.2576V20.2988H93.0176V30.5461H95.6901V26.3918C96.3703 26.3918 96.9858 26.3429 97.5203 26.2452L99.9337 30.5624H102.622V30.2365L99.7393 25.4143C101.57 24.2576 102.055 22.2375 102.088 20.2988Z" fill="#0F198C"/>
<path d="M108.568 19.9727C105.668 19.9727 103.223 22.172 103.223 25.4303C103.223 28.6722 105.668 30.8879 108.568 30.8879C111.467 30.8879 113.913 28.6885 113.913 25.4303C113.913 22.172 111.467 19.9727 108.568 19.9727ZM108.568 28.5093C107.11 28.5093 105.83 27.3526 105.83 25.414C105.83 23.4753 107.11 22.3186 108.568 22.3186C110.025 22.3186 111.305 23.4753 111.305 25.414C111.305 27.3689 110.042 28.5093 108.568 28.5093Z" fill="#0F198C"/>
<path d="M125.429 20.2988L121.299 25.0559L117.169 20.2988H115.598V30.5461H118.173V24.893L121.186 28.4282H121.412L124.409 24.893V30.5461H127V20.2988H125.429Z" fill="#0F198C"/>
<path d="M47.1002 23.5411C47.1002 22.0586 45.9988 19.957 42.727 19.957C39.8925 19.957 37.3496 21.9283 37.3496 25.4146C37.3496 29.6667 40.589 30.8722 42.9699 30.8722C44.5086 30.8722 45.5129 30.5464 46.4847 30.1228L46.6628 27.9561C45.6748 28.4448 44.6544 28.7218 43.3911 28.7218C41.3988 28.7218 40.2165 28.0375 39.9573 26.0826C40.8157 26.5224 41.9009 26.7505 43.0995 26.7505C45.2861 26.7505 47.1002 25.7405 47.1002 23.5411ZM39.9573 24.372C40.5566 21.4395 44.5248 21.6513 44.5248 23.5411C44.5248 25.1703 41.8524 25.1051 39.9573 24.372Z" fill="#0F198C"/>
<path d="M67.7349 23.5411C67.7349 22.0586 66.6335 19.957 63.3618 19.957C60.5273 19.957 57.9844 21.9283 57.9844 25.4146C57.9844 29.6667 61.2238 30.8722 63.6047 30.8722C65.1434 30.8722 66.1476 30.5464 67.1194 30.1228L67.2976 27.9561C66.3096 28.4448 65.2892 28.7218 64.0258 28.7218C62.0336 28.7218 60.8512 28.0375 60.5921 26.0826C61.4505 26.5224 62.5357 26.7505 63.7343 26.7505C65.9209 26.7505 67.7349 25.7405 67.7349 23.5411ZM60.5921 24.372C61.1914 21.4395 65.1596 21.6513 65.1596 23.5411C65.1596 25.1703 62.4871 25.1051 60.5921 24.372Z" fill="#0F198C"/>
<path d="M90.897 23.5411C90.897 22.0586 89.7956 19.957 86.5239 19.957C83.6894 19.957 81.1465 21.9283 81.1465 25.4146C81.1465 29.6667 84.3859 30.8722 86.7668 30.8722C88.3055 30.8722 89.3097 30.5464 90.2816 30.1228L90.4597 27.9561C89.4717 28.4448 88.4513 28.7218 87.1879 28.7218C85.1957 28.7218 84.0133 28.0375 83.7542 26.0826C84.6126 26.5224 85.6978 26.7505 86.8964 26.7505C89.083 26.7505 90.897 25.7405 90.897 23.5411ZM83.7542 24.372C84.3535 21.4395 88.3217 21.6513 88.3217 23.5411C88.3217 25.1703 85.6492 25.1051 83.7542 24.372Z" fill="#0F198C"/>
<path d="M69.6299 28.135C69.2897 28.135 68.8524 28.0535 68.6743 27.9558L68.4961 30.1225C68.9982 30.4483 69.6785 30.5461 70.1158 30.5461C73.1446 30.5461 73.3552 27.5322 73.5819 22.4819H76.5298V30.5461H79.2023V20.2988H71.1848C70.9418 26.8154 70.9418 28.135 69.6299 28.135Z" fill="#0F198C"/>
<path d="M22.7567 32.322C14.5772 32.322 10.8357 26.4571 10.8357 21.586C10.8357 20.4456 11.0301 19.2075 11.0301 19.2075C10.2526 18.5884 9.53998 17.8716 8.89211 17.1059L10.4956 13.9128C10.8519 14.3201 11.759 15.2161 12.2611 15.6723C13.4596 13.2937 16.699 9.5793 21.8658 9.5793C27.0327 9.5793 30.2396 12.7072 30.2396 16.1447C30.2396 19.908 26.9841 23.1826 21.8496 23.1826C17.0068 23.1826 14.6906 21.4557 14.6906 21.4557C14.8364 25.2027 17.3631 28.0048 22.8053 28.0048C29.8347 28.0048 33.5924 22.1399 33.722 16.8615C33.9811 7.52659 26.7735 0 16.8934 0C7.56396 0 0 7.60805 0 16.9919C0 26.3757 7.56396 33.9837 16.8934 33.9837C19.5497 33.9837 22.0764 33.3646 24.3116 32.2568C23.8095 32.3057 23.2912 32.322 22.7567 32.322Z" fill="#00D2C8"/>
<path d="M26.4173 16.0951C26.4173 14.2053 24.3927 13.293 22.2061 13.293C18.7076 13.293 16.3104 16.0136 15.4844 18.0663C18.8371 20.3634 26.4173 20.119 26.4173 16.0951Z" fill="#00D2C8"/>
</svg>
