<?xml version="1.0" encoding="utf-8"?>
<!-- Generator: Adobe Illustrator 21.0.0, SVG Export Plug-In . SVG Version: 6.00 Build 0)  -->
<svg version="1.1" id="Слой_1" xmlns="http://www.w3.org/2000/svg" xmlns:xlink="http://www.w3.org/1999/xlink" x="0px" y="0px"
	 viewBox="0 0 199.6 66" style="enable-background:new 0 0 199.6 66;" xml:space="preserve">
<style type="text/css">
	.st0{fill:#EF0A0F;}
</style>
<g>
	<path d="M199.6,46.9c-0.4,2-1.5,3.4-3.3,4.2c-0.9,0.4-1.9,0.6-2.9,0.7c-2.9,0.1-5.8,0.2-8.7,0.1c-9.1-0.4-18.3-0.7-27.4-0.7
		c-11.3,0-22.6,0-33.9,0.2c-8.3,0.2-16.7,0.7-25,1.1c-6.7,0.4-13.5,0.8-20.2,1.4c-7.8,0.7-15.7,1.4-23.5,2.3c-8,1-16,2.2-24,3.4
		c-10.3,1.5-20.4,3.7-30.5,6.3c-0.1,0-0.2,0-0.3-0.1c1.3-0.5,2.7-1.1,4-1.6c12.8-4.8,25.9-8.6,39.2-11.5c9.5-2.1,19-3.9,28.7-5.5
		c5.7-0.9,11.5-1.7,17.3-2.4c5.9-0.7,11.8-1.4,17.7-2c5.2-0.5,10.5-1,15.7-1.4c7.1-0.5,14.2-1,21.3-1.4c6.4-0.3,12.8-0.6,19.2-0.8
		c5.7-0.1,11.5-0.1,17.2-0.1c4,0,8.1,0.1,12.1,0.7c0.7,0.1,1.4,0.2,2.1,0.4c2.6,0.7,4.5,2,5.1,4.9C199.6,45.8,199.6,46.4,199.6,46.9
		z"/>
	<path d="M22.8,0c0.6,0.4,1.3,0.7,1.9,1.2c2.2,1.6,4.4,3.3,6.6,4.9c0.2,0.1,0.3,0.2,0.6,0.4c0-0.8,0-1.4,0-2.1c1.9,0,3.8,0,5.7,0
		c0,1.4,0,2.8,0,4.1c0,0.8-0.2,1.7,0.1,2.3c0.3,0.6,1.2,0.9,1.8,1.4c0.6,0.4,1.1,0.8,1.7,1.2c0.8,0.6,1.2,1.3,1.2,2.2
		c0,6.3,0,12.5,0,18.8c0,1.9-0.9,2.7-2.7,2.7c-11.2,0-22.3,0-33.5,0c-0.3,0-0.7,0-1-0.1c-1.2-0.2-2-1-2.1-2.2c0-0.3,0-0.5,0-0.8
		c0-6.2,0-12.3,0-18.5c0-1.2,0.4-2,1.4-2.7C9.6,9,14.8,5,20,1.1c0.5-0.4,1.2-0.7,1.8-1.1C22.1,0,22.5,0,22.8,0z M38.1,33.9
		c0-0.2,0.1-0.3,0.1-0.4c0-5.8,0-11.6,0-17.3c0-0.4-0.2-0.8-0.5-1.1c-1.1-1.1-2.4-1.9-3.8-2.5c-1.9-0.9-3.8-1-5.9-0.5
		c-2.3,0.6-4,1.9-5.3,4c-0.1-0.2-0.2-0.3-0.3-0.5c-2.1-2.8-4.8-4.1-8.3-3.7c-2.6,0.3-4.6,1.8-6.5,3.5c-0.2,0.1-0.2,0.5-0.2,0.8
		c0,5.8,0,11.6,0,17.4c0,0.2,0,0.3,0,0.5c1.9,0,3.7,0,5.6,0c0-0.3,0-0.5,0-0.7c0-4.9,0-9.8,0-14.6c0-1.7,1.1-2.9,2.9-3.1
		c1.8-0.3,3.3,0.6,3.7,2.3c0.2,0.8,0.2,1.7,0.2,2.5c0,4.3,0,8.7,0,13c0,0.2,0,0.5,0,0.7c2,0,3.9,0,5.9,0c0-0.3,0-0.5,0-0.8
		c0-4.8,0-9.5,0-14.3c0-1.7,0.9-2.9,2.4-3.3c2.4-0.7,4.2,0.5,4.4,3c0.1,0.5,0,1.1,0,1.6c0,4.4,0,8.7,0,13.1c0,0.2,0,0.5,0,0.7
		C34.4,33.9,36.2,33.9,38.1,33.9z"/>
	<path d="M67.5,41.2c-1.6,0-3.1,0-4.7,0c0-0.3,0-0.5,0-0.7c0-4.7,0-9.4,0-14.2c0-2.1-0.3-4-2.1-5.4c0.6-0.2,1.1-0.3,1.6-0.4
		c0.6-0.2,1.3-0.4,1.9-0.5c0.3-0.1,0.7,0,1.1,0.1c2.6-1.2,5.3-1.3,8.1-0.5c2.4,0.7,3.9,2.4,4,4.9c0.1,2.1,0.1,4.1-0.1,6.2
		c-0.3,3.2-2.1,5-5.3,5.3c-1.5,0.2-3,0-4.5,0C67.5,37.7,67.5,39.4,67.5,41.2z M67.4,27.7C67.4,27.7,67.4,27.7,67.4,27.7
		c0.1,0.9,0,1.9,0.1,2.8c0.1,0.8,0.2,1.5,0.5,2.3c0.4,1.1,1.2,1.4,2.5,1.4c0.9-0.1,1.6-0.6,1.9-1.6c0.1-0.4,0.2-0.7,0.2-1.1
		c0.1-2.3,0.1-4.5,0.1-6.8c0-0.6-0.2-1.3-0.4-1.8c-0.4-0.9-1-1.3-2-1.4c-1.4,0-2.5,0.9-2.7,2.4C67.5,25.1,67.5,26.4,67.4,27.7z"/>
	<path d="M54.5,24.3c0-0.3,0-0.7,0-1.2c-0.1-1-0.8-1.6-1.8-1.8c-1.4-0.2-2.5,0.3-3.3,1.3C49.2,23,49,23.1,48.6,23
		c-1.2-0.3-2.3-0.6-3.6-0.9c1.1-1.2,2.4-1.9,3.9-2.4c2.1-0.7,4.2-0.8,6.3-0.1c2.5,0.9,3.8,2.7,3.9,5.3c0.1,1.5,0.1,3,0,4.4
		c-0.1,1.6,0.3,3,1.1,4.3c0.4,0.6,0.7,1.2,1.1,1.9c-1.4,0.3-2.7,0.7-4.1,1c-0.2-0.5-0.3-0.9-0.4-1.4C56,35.5,55,35.8,54.1,36
		c-1.7,0.4-3.5,0.4-5.2-0.1c-3.2-0.8-4.5-3.1-4.2-6.5c0.3-3.1,2.3-4.9,5.7-5.2C51.8,24.2,53.1,24.3,54.5,24.3z M54.7,30.1
		c-0.1-0.7-0.2-1.4-0.4-2c-0.3-1.2-1.1-1.8-2.2-1.9c-1.2,0-2.3,0.7-2.6,1.8c-0.5,1.6-0.4,3.1,0.2,4.6c0.5,1,1.3,1.5,2.5,1.4
		c1-0.1,1.7-0.6,2-1.7C54.4,31.7,54.5,30.9,54.7,30.1z"/>
	<path class="st0" d="M151.3,20.9c1.4-0.4,2.6-0.7,3.9-1c0.1,0,0.2,0,0.3,0c0.4,0.5,0.7,0.2,1.1,0c2.4-0.9,4.8-1.2,7.2-0.5
		c2.6,0.7,4.1,2.5,4.2,5.4c0.1,3.7,0,7.4,0,11.2c0,0,0,0.1-0.1,0.1c-1.5,0-3,0-4.6,0c0-0.3,0-0.5,0-0.7c0-3.3,0-6.7,0-10
		c0-0.7,0-1.5-0.2-2.2c-0.2-1.2-0.8-1.8-1.8-1.9c-1.4-0.1-2.5,0.3-2.9,1.4c-0.3,0.9-0.4,1.8-0.4,2.8c-0.1,3.3,0,6.6,0,10
		c0,0.2,0,0.4,0,0.7c-1.5,0-3.1,0-4.6,0c0-0.2,0-0.4,0-0.7c0-2.8,0-5.6,0-8.4C153.5,24.8,153.4,22.6,151.3,20.9z"/>
	<path d="M118,19.6c0,2.6,0,5.1,0,7.6c0,0.5,0.1,0.7,0.6,0.8c1.3,0.5,2.6,0.5,3.9,0.1c0.5-0.2,0.7-0.4,0.7-0.9c0-2.3,0-4.6,0-7
		c0-0.2,0-0.4,0-0.7c1.5,0,3,0,4.5,0c0,5.3,0,10.6,0,16c-1.5,0-2.9,0-4.4,0c0-1.6,0-3.2,0-4.8c-1.7,0.5-3.4,0.5-5.2-0.1
		c0,1.7,0,3.3,0,4.9c-1.5,0-3,0-4.5,0c0-5.3,0-10.6,0-16C115,19.6,116.5,19.6,118,19.6z"/>
	<path d="M105.7,19.6c1.5,0,3,0,4.5,0c0,0.2,0,0.5,0,0.7c0,3.1,0.1,6.1,0,9.2c0,1.9,0.4,3.5,1.5,5c0.2,0.3,0.4,0.6,0.6,1
		c-1.3,0.3-2.6,0.7-3.9,1c-0.1-0.5-0.3-0.9-0.4-1.3c-1.1,0.3-2.1,0.7-3.2,0.9c-1.6,0.3-3.2,0.2-4.8-0.3c-2.5-0.8-3.7-2.4-3.8-5
		C96,28.9,96,27.1,96,25.3c0-1.7,0-3.4,0-5c0-0.2,0-0.4,0-0.7c1.5,0,3,0,4.5,0c0,0.2,0,0.4,0,0.7c0,3.3,0,6.5,0,9.8
		c0,0.6,0,1.2,0.1,1.8c0.2,1.5,1.2,2.2,2.6,2.2c1.2,0,2.1-1,2.3-2.3c0.1-0.8,0.1-1.6,0.1-2.3c0-3,0-6.1,0-9.1
		C105.7,20.1,105.7,19.8,105.7,19.6z"/>
	<path d="M145.1,27.8c-0.1,1.2-0.1,2.4-0.3,3.5c-0.3,2.4-1.8,3.9-4.2,4.6c-1.9,0.5-3.8,0.5-5.8,0c-2.6-0.6-4.3-2.7-4.4-4.9
		c-0.1-2.5-0.3-5.1,0.2-7.6c0.3-1.4,1-2.5,2.2-3.2c2.8-1.6,5.7-1.8,8.6-0.5c2.2,0.9,3.3,2.8,3.5,5.1c0.1,1,0,2,0,2.9
		C145,27.8,145.1,27.8,145.1,27.8z M140.3,27.5c-0.1,0-0.1,0-0.2,0c0-1.4,0.1-2.7,0-4.1c-0.1-1.3-1-2-2.2-2.1
		c-1.5-0.1-2.7,0.9-2.8,2.6c-0.2,2.4-0.2,4.9-0.1,7.3c0,0.7,0.3,1.4,0.7,1.9c0.6,0.9,1.6,1.1,2.6,0.9c1-0.2,1.6-0.8,1.7-1.8
		C140.1,30.7,140.2,29.1,140.3,27.5z"/>
	<path class="st0" d="M174.7,31.3c-0.1,1.2,0.5,2.4,1.5,2.8c1.1,0.5,2.5,0.2,3.2-0.7c0.5-0.7,1-0.8,1.8-0.5c0.9,0.3,1.8,0.5,2.7,0.7
		c0,0,0.1,0,0.1,0.1c-0.8,1-1.8,1.7-3,2.1c-2.6,0.9-5.2,1-7.7,0c-1.9-0.8-3-2.2-3.2-4.2c-0.2-2-0.2-4.1-0.1-6.2
		c0.2-2.8,1.8-4.5,4.4-5.4c1.8-0.6,3.6-0.7,5.4-0.3c3.5,0.8,5.2,3.4,4.6,7c-0.5,2.7-2.3,4.4-5.3,4.7c-0.7,0.1-1.5,0.1-2.2,0.1
		C176.2,31.5,175.5,31.4,174.7,31.3z M180.2,25.4c-0.2-0.8-0.3-1.5-0.6-2.3c-0.3-0.9-1-1.5-2-1.5c-1,0-1.9,0.3-2.4,1.3
		c-0.9,1.6-0.8,3.3,0,5c0.5,0.9,1.3,1.2,2.3,1.2c1,0,1.7-0.6,2.1-1.5C179.9,26.9,180,26.2,180.2,25.4z"/>
	<path d="M84.4,23.5c1.7-0.5,3.4-0.6,5.1-0.2c2.9,0.7,4.6,2.6,4.8,5.6c0.1,1,0,2.1-0.2,3.1c-0.5,2.3-1.9,3.6-4.2,4.1
		c-2.1,0.4-4.1,0.4-6.2-0.2c-2.5-0.8-3.8-2.4-3.9-5c-0.1-3,0-5.9,0-8.9c0-0.9,0-1.7,0-2.6c1.6,0,3.1,0,4.7,0
		C84.4,20.6,84.4,22,84.4,23.5z M89.7,29.8c-0.1-0.8-0.2-1.5-0.3-2.2c0-0.3-0.1-0.5-0.2-0.8c-0.5-1.3-1.4-1.8-2.8-1.5
		c-1,0.2-1.5,0.9-1.8,1.8c-0.5,1.7-0.5,3.4,0,5.1c0.3,1.2,1.2,2,2.3,2c1.1,0,2-0.7,2.3-2C89.5,31.4,89.6,30.5,89.7,29.8z"/>
	<path class="st0" d="M187,16.7c1.6,0,3.1,0,4.7,0c0,0.8,0,1.6,0,2.4c1.3,0,2.5,0,3.7,0c0,0.7,0,1.4,0,2.2c-1.2,0-2.4,0-3.6,0
		c0,0.1-0.1,0.2-0.1,0.3c0,2.9,0,5.8,0,8.7c0,0.5,0.1,1,0.2,1.5c0.4,1.5,1.2,2.2,2.8,2.3c0.2,0,0.4,0,0.7,0c0,0.7,0,1.4,0,2.1
		c-2.4,0.1-4.8,0-6.7-1.7c-0.9-0.8-1.4-2-1.5-3.2c-0.1-0.8-0.1-1.5-0.1-2.3c0-2.5,0-5.1,0-7.7c-0.8,0-1.6,0-2.4,0c0-0.8,0-1.4,0-2.2
		c0.8,0,1.6,0,2.4,0C187,18.3,187,17.6,187,16.7z"/>
	<path class="st0" d="M150.9,36.2c-1.5,0-3,0-4.5,0c0-0.9,0-1.8,0-2.7c1.5,0,3,0,4.5,0C150.9,34.4,150.9,35.3,150.9,36.2z"/>
</g>
</svg>
