<svg width="34" height="34" viewBox="0 0 34 34" fill="none" xmlns="http://www.w3.org/2000/svg">
<path d="M33.3855 0H0V33.3106H33.3855V0Z" fill="#FF0032"/>
<path d="M22.2422 2.53931V4.09318H25.598V10.2737H27.4768V4.09318H30.8325V2.53931H22.2422Z" fill="white"/>
<path d="M10.1585 2.5625L7.70408 7.64684L5.24969 2.5625H2.57031V10.2502H4.44909V4.749L6.84796 9.39749H8.56019L10.9591 4.749V10.2502H12.8378V2.5625H10.157H10.1585Z" fill="white"/>
<path d="M28.9484 28.1855C28.9134 28.4697 28.7833 28.7335 28.5803 28.9347C28.3684 29.1271 28.1098 29.2568 27.8293 29.3122C27.4203 29.3924 27.0039 29.4303 26.5861 29.4245C26.1419 29.4318 25.6993 29.3676 25.2756 29.2335C24.9279 29.1213 24.6299 28.8953 24.4253 28.5936C24.2208 28.2904 24.12 27.8546 24.12 27.2992V26.5121C24.12 25.9523 24.2237 25.5165 24.4253 25.2133C24.6284 24.9115 24.9264 24.6871 25.2741 24.5748C25.6978 24.4407 26.1405 24.3751 26.5846 24.3839C27.0024 24.378 27.4188 24.4159 27.8279 24.4961C28.1084 24.5515 28.367 24.6827 28.5788 24.8736C28.7819 25.0748 28.9119 25.3386 28.947 25.6229H30.8272C30.7936 25.0311 30.5671 24.467 30.1829 24.0151C29.8045 23.5997 29.3137 23.3008 28.7702 23.1551C28.0572 22.967 27.3224 22.8796 26.5846 22.8941C25.6832 22.8941 24.9031 23.0239 24.2632 23.279C23.6306 23.5224 23.1003 23.9743 22.7613 24.5603C22.4297 25.1273 22.2558 25.8853 22.2441 26.8138V26.8983L22.3449 26.9027H22.2441V26.9873C22.2558 27.9158 22.4297 28.6738 22.7613 29.2408C23.1003 29.8268 23.6306 30.2787 24.2632 30.5221C24.9031 30.7772 25.6861 30.9069 26.5846 30.9069C27.3209 30.9215 28.0572 30.834 28.7702 30.646C29.3137 30.5002 29.8045 30.2014 30.1829 29.786C30.5671 29.3341 30.7936 28.77 30.8272 28.1782L28.9499 28.1825L28.9484 28.1855Z" fill="white"/>
</svg>
