<svg width="846" height="161" viewBox="0 0 846 161" fill="none" xmlns="http://www.w3.org/2000/svg">
<path fill-rule="evenodd" clip-rule="evenodd" d="M0 80.24C0 53.49 3.7 19.46 11.57 11.58C19.45 3.70999 53.49 0 80.23 0C106.98 0 141.01 3.70999 148.89 11.58C151.95 14.64 154.38 21.65 156.21 30.64C132.81 33.23 111.83 43.81 96.04 59.59C90.68 64.95 85.92 70.91 81.87 77.36C89.48 63.28 93.84 47.18 93.95 30.08H68.76C68.59 50.75 60.15 69.44 46.58 83.01C34.63 94.96 18.71 102.93 0.959999 104.78C0.309999 96.54 0 88.07 0 80.24ZM78.56 83.04C71 97.02 66.65 112.99 66.48 129.95H91.67C91.94 109.44 100.36 90.89 113.85 77.4C125.8 65.44 141.74 57.47 159.5 55.62C160.15 63.89 160.47 72.38 160.47 80.24C160.47 106.98 156.77 141.02 148.89 148.9C141.01 156.77 106.98 160.47 80.23 160.47C53.49 160.47 19.45 156.77 11.57 148.9C8.51 145.83 6.07 138.79 4.24 129.76C27.63 127.17 48.61 116.6 64.39 100.82C69.75 95.46 74.51 89.5 78.56 83.04V83.04Z" fill="#0A56FA"/>
<path fill-rule="evenodd" clip-rule="evenodd" d="M214 79.9897C214 54.7997 232.73 35.9297 257.93 35.9297C277.9 35.9297 295.56 48.0397 299.4 68.4897H281.43C278.2 57.8897 268.84 52.0497 257.93 52.0497C242.27 52.0497 231.49 63.7297 231.49 80.0097C231.49 96.2897 242.51 107.96 257.75 107.96C268.77 107.96 278.18 101.82 281.4 91.3797H299.37C295.38 112.31 277.56 124.09 257.75 124.09C232.72 124.09 213.98 105.2 213.98 80.0297L214 79.9897V79.9897Z" fill="#0A56FA"/>
<path fill-rule="evenodd" clip-rule="evenodd" d="M389.65 37.7598V122.23H372.3V86.8998L373.37 60.1798L331.6 122.23H311.18V37.7598H328.53V73.0798L327.46 99.6498L369.23 37.7598H389.65Z" fill="#0A56FA"/>
<path fill-rule="evenodd" clip-rule="evenodd" d="M489.75 80.4501C489.75 106.71 471.03 124.07 446.9 124.07C423.25 124.07 402.98 107.94 402.84 72.4601C402.84 12.4101 432.33 2.12012 479.17 2.12012V18.5601C440.77 18.5601 422.99 24.5501 420.5 57.4201C426.65 45.7401 438.78 39.7901 451.52 39.7901C473.02 39.7901 489.76 55.9201 489.76 80.4901L489.75 80.4501ZM472.4 81.4201C472.4 65.2901 461.5 54.7001 447.07 54.7001C432.64 54.7001 420.35 65.1401 420.35 81.4201C420.35 98.3201 431.56 109.07 446.14 109.07C460.73 109.07 472.4 98.3201 472.4 81.4201V81.4201Z" fill="#0A56FA"/>
<path fill-rule="evenodd" clip-rule="evenodd" d="M500.05 79.9897C500.05 54.7997 518.78 35.9297 543.98 35.9297C563.95 35.9297 581.61 48.0397 585.45 68.4897H567.48C564.25 57.8897 554.89 52.0497 543.98 52.0497C528.32 52.0497 517.54 63.7297 517.54 80.0097C517.54 96.2897 528.56 107.96 543.8 107.96C554.82 107.96 564.23 101.82 567.45 91.3797H585.42C581.43 112.31 563.61 124.09 543.79 124.09C518.77 124.09 500.02 105.2 500.02 80.0297L500.05 79.9897V79.9897Z" fill="#0A56FA"/>
<path fill-rule="evenodd" clip-rule="evenodd" d="M680.78 84.7497H612.13C613.51 100.25 624.41 108.86 638.57 108.86C648.7 108.86 657.15 104.56 661.15 96.2697H679.11C672.5 115.16 656.38 124.07 638.41 124.07C612.77 124.07 594.48 105.64 594.48 80.1397C594.48 54.6397 612.59 35.9297 638.08 35.9297C665.27 35.9297 682.46 56.9697 680.78 84.7697V84.7497V84.7497ZM613.04 70.6297H662.19C659.58 59.1097 650.83 50.9697 638.08 50.9697C624.86 50.9697 615.96 59.2697 613.04 70.6297Z" fill="#0A56FA"/>
<path fill-rule="evenodd" clip-rule="evenodd" d="M757.67 54.0398H730.18V122.22H712.83V54.0398H685.18V37.7598H730.18H757.67V54.0398Z" fill="#0A56FA"/>
<path fill-rule="evenodd" clip-rule="evenodd" d="M845.78 37.7598V122.23H828.43V86.8998L829.5 60.1798L787.73 122.23H767.3V37.7598H784.66V73.0798L783.58 99.6498L825.36 37.7598H845.78Z" fill="#0A56FA"/>
</svg>
