<svg width="320" height="225" viewBox="0 0 320 225" fill="none" xmlns="http://www.w3.org/2000/svg">
<path d="M93.8 81.2C87.3 74.8 75.9 71 73 70.1C73 70.1 71 69.4 50.8 62.9C47.5 61.8 31.3 57.7 31.3 43.3C31.3 29 45 24.4 52.1 24.4C53.4 24.4 61.9 23.7 71.6 30.9C81.4 38.1 89.8 60.9 89.8 60.9H97V19.3H89.8L84 25.1C76.3 20.5 64.9 16 50.7 16C26.6 16 3.09998 28.4 3.09998 53.8C3.09998 79.2 26.6 89 34.4 91.6C42.2 94.2 48.7 96.1 58.5 99.4C67.5 102.4 75.4 107.2 75.4 119C75.4 130.7 66.3 135.4 60.4 136.6C57.1 137.3 56.5 137.3 58.4 137.3H87.1C87.1 137.3 91 135.3 94.9 130.8C98.8 126.2 104 117.8 104 107.3C104.2 96.2 100.3 87.6 93.8 81.2Z" fill="#5BBB24"/>
<path d="M46.1 137C42.1 136.3 39.2 135.6 35.9 134C31.4 131.8 26.4 128 22.9 124.1C19.5 120.4 16.8 116.2 14.2 111.5C12 107.6 10.9 103.8 9.3 100.1H0V137.3H46.1C46.2 137.3 46.2 137.2 46.2 137.2C46.2 137.1 46.1 137 46.1 137Z" fill="#5BBB24"/>
<path d="M200.6 168.2C200.6 159.2 205 151.3 211.7 146.4H0V182.9H205C202.2 178.6 200.6 173.6 200.6 168.2Z" fill="#5BBB24"/>
<path d="M274.3 182.6C273.2 182.6 272.2 182.4 271.2 181.8C267.8 180.1 266.5 175.9 268.2 172.5L294 121.8L268.2 71.1001C266.5 67.7001 267.8 63.6001 271.2 61.8001C274.6 60.1001 278.7 61.4001 280.5 64.8001L307.9 118.6C308.9 120.6 308.9 122.9 307.9 124.9L280.5 178.7C279.2 181.3 276.8 182.6 274.3 182.6Z" fill="#5BBB24"/>
<path d="M27.2 151.5H22.6V156H19.5V160.1H22.6V170.9C22.6 174.1 24.4 175.7 27.9 175.7C28.9 175.7 30 175.6 31 175.4L31.6 175.3V170.9L30.8 171.1C30.1 171.3 29.4 171.3 28.8 171.3C27.5 171.3 27.3 171 27.3 169.9V160H31.7V156H27.3V151.5H27.2Z" fill="white"/>
<path d="M47 155.4C40.6 155.4 36.5 159.4 36.5 165.6C36.5 171.7 40.6 175.7 47 175.7C52 175.7 55.7 173.3 57.1 169.2L57.4 168.3H52.2L52 168.7C51.4 170.4 49.6 171.3 47 171.3C43.8 171.3 41.7 169.6 41.4 166.9H57.4V165.6C57.4 159.3 53.4 155.4 47 155.4ZM47 159.8C49.8 159.8 51.7 161.1 52.4 163.3H41.6C42.3 161.1 44.2 159.8 47 159.8Z" fill="white"/>
<path d="M67.1 149.8H62.5V175.2H67.1V149.8Z" fill="white"/>
<path d="M82.8 155.4C76.4 155.4 72.3 159.4 72.3 165.6C72.3 171.7 76.4 175.7 82.8 175.7C87.8 175.7 91.5 173.3 92.9 169.2L93.2 168.3H88L87.8 168.7C87.2 170.4 85.4 171.3 82.8 171.3C79.6 171.3 77.5 169.6 77.2 166.9H93.2V165.6C93.2 159.3 89.2 155.4 82.8 155.4ZM82.8 159.8C85.6 159.8 87.5 161.1 88.2 163.3H77.4C78.1 161.1 80 159.8 82.8 159.8Z" fill="white"/>
<path d="M113.7 167.7C113.3 170 111.5 171.3 108.9 171.3C105.4 171.3 103.3 169.1 103.3 165.6C103.3 161.9 105.5 159.7 109.2 159.7C111.5 159.7 113.2 160.8 113.7 162.7L113.8 163.2H118.5L118.3 162.4C117.5 158.1 113.8 155.3 108.8 155.3C102.7 155.3 98.4 159.5 98.4 165.5C98.4 171.5 102.5 175.6 108.7 175.6C114 175.6 117.6 172.7 118.4 167.9L118.5 167.1H113.7V167.7Z" fill="white"/>
<path d="M134.4 155.4C127.9 155.4 123.7 159.4 123.7 165.6C123.7 171.7 127.9 175.7 134.4 175.7C140.9 175.7 145 171.7 145 165.6C145 159.4 140.9 155.4 134.4 155.4ZM134.4 171.3C130.7 171.3 128.5 169.2 128.5 165.5C128.5 161.8 130.6 159.7 134.4 159.7C138.1 159.7 140.2 161.8 140.2 165.5C140.3 169.2 138.1 171.3 134.4 171.3Z" fill="white"/>
<path d="M175.6 155.4C172.7 155.4 170.4 156.5 168.2 158.7C167.1 156.6 164.7 155.4 161.7 155.4C159.2 155.4 156.9 156.3 155 158V156H150.4V175.2H155V165.5C155 162 157.4 159.6 160.9 159.6C163.5 159.6 164.5 160.8 164.5 164.2V175.2H169V165.5C169 162 171.4 159.6 174.9 159.6C177.5 159.6 178.5 160.8 178.5 164.2V175.2H183.1V164.3C183.1 160.2 182.3 155.4 175.6 155.4Z" fill="white"/>
<path d="M275.6 110.5C275.6 110.5 258.5 77.2 256 72C250.2 60.3 258.8 60.9 265.8 60.9V53.7H167.4V60.9C181.1 60.9 186 63.8 173.9 75.9C164.5 85.4 148.5 101.3 148.5 101.3V6.90002L106.2 8.90002V16C106.2 16 112.5 16.1 116.6 19.3C119.9 21.8 119.9 29.1 119.9 29.1V137.3H148.6V114.5L159 104.1L183.1 137.3H218.9L179.8 83.8C179.8 83.8 180.6 82.4 189.6 73.4C209.1 53.9 217.4 59.8 225.4 75.4C230.8 86 252.1 127.7 259.3 142.5C259.5 142.9 254.4 152.9 248.7 159.4C243.9 164.9 240.7 165.2 240.4 164.6C239.9 163.8 239.3 163 238.8 162.3C238.1 161.2 237.3 160.1 236.3 159.2C230.4 153.3 221.5 152.8 216.3 158C211.1 163.2 211.6 172.2 217.5 178C220.7 181.2 224.7 182.8 228.6 182.7H228.7C238 182.6 249.3 182.6 272.4 137.1L284.5 113.3L279.3 103.1L275.6 110.5Z" fill="#2A2F34"/>
<path d="M284.7 53.8V61C293.8 61 300.9 60.9 295.1 72.1L292.1 78L297.3 88.3L302.9 77.4C308.8 66 311.6 61.1 319.2 61.1V53.9H284.7V53.8Z" fill="#313236"/>
<path d="M188.3 40.8V37.5H183.1V17.9C183.6 16.9 184.4 16.1 185.2 15.3C186 14.5 186.9 13.7 187.9 13.1C189.9 11.9 192.1 11.2 194.4 10.9C196.5 10.7 198.8 10.8 200.8 11.5C202.4 12.1 203.6 13.1 204.5 14.6C205.7 16.7 206 19.1 206 21.5V37.3H201.5H200.8V40.6H201.5H221H221.7V37.3H221H215.8V20.6C215.8 17.8 215.5 14.9 214.1 12.5C212.8 10.1 210.6 8.49998 208 7.69998C205.2 6.79998 202.2 6.59998 199.3 6.59998C196.5 6.59998 193.7 6.79998 191 7.79998C189.5 8.39998 188.1 9.09998 186.8 9.99998C185.5 10.9 184.2 11.9 183.2 13.1V6.79998H167.6V10.1H173.5V37.5H167.6V40.8H188.3Z" fill="#2A2F34"/>
<path d="M268.8 36.5001C266.3 39.1001 262.7 40.3001 259.3 41.0001C255.4 41.8001 251.3 41.8001 247.3 41.3001C239.9 40.4001 231.9 37.1001 229.4 29.3001C228.3 25.8001 228.4 21.7001 229.5 18.2001C230.5 15.1001 232.5 12.5001 235.1 10.7001C237.8 8.90007 240.9 7.80007 244 7.20007C247.9 6.50007 251.9 6.30007 255.8 6.90007C259.6 7.40007 263.6 8.50007 266.5 11.1001C267.8 12.3001 268.9 13.8001 269.5 15.5001C270.1 17.4001 270.2 19.4001 269.9 21.3001C269.8 22.3001 269.6 23.3001 269.3 24.3001H238.6C238.6 26.6001 239.2 28.9001 240.5 30.8001C241.8 32.7001 243.6 34.0001 245.6 34.9001C247.7 35.8001 249.9 36.3001 252.2 36.6001C254.5 36.8001 256.9 36.9001 259.2 36.5001C261.6 36.1001 264.2 35.3001 266.3 34.0001L268.8 36.5001ZM251 9.60007C247.9 9.60007 244.5 10.1001 242.1 12.4001C239.9 14.6001 239.1 17.9001 238.9 21.0001H260.5C261 18.0001 260.6 14.8001 258.6 12.4001C256.7 10.2001 253.8 9.60007 251 9.60007Z" fill="#2A2F34"/>
<path d="M284.7 0.400024V6.90002H276.9V10.8H284.7V32C284.7 34 285 36.1 286.1 37.7C287.1 39.1 288.6 40 290.2 40.6C292.2 41.3 294.4 41.5 296.6 41.6C299.2 41.6 301.7 41.4 304.2 40.8C306.7 40.2 309.3 39.3 311.4 37.8L308.8 35.1C308.4 35.3 307.9 35.6 307.5 35.8C306.4 36.3 305.2 36.8 304 37.1C302.8 37.4 301.6 37.5 300.4 37.5C298.7 37.5 296.9 37 295.8 35.5C294.7 34 294.5 31.9 294.5 30.1V10.8H308.8V6.90002H294.5V0.400024H284.7Z" fill="#2A2F34"/>
<path d="M3.39998 217.7C1.89998 216 1.09998 213.6 1.09998 210.7C1.09998 207.8 1.89998 205.5 3.39998 203.7C4.89998 202 6.89998 201.1 9.49998 201.1C11.5 201.1 13.2 201.6 14.6 202.7C16 203.8 16.9 205.2 17.2 207H14.8C14.5 205.8 13.8 204.9 12.9 204.3C11.9 203.6 10.8 203.3 9.59998 203.3C7.79998 203.3 6.29998 204 5.29998 205.3C4.19998 206.7 3.69998 208.5 3.69998 210.7C3.69998 213 4.19998 214.8 5.29998 216.1C6.39998 217.4 7.79998 218.1 9.69998 218.1C11 218.1 12.1 217.8 13.1 217.2C14 216.6 14.6 215.8 15 214.7H17.4C16.9 216.5 16.1 217.8 14.7 218.8C13.4 219.7 11.7 220.2 9.69998 220.2C6.99998 220.3 4.89998 219.4 3.39998 217.7Z" fill="#2A2F34"/>
<path d="M31.4 220H28.5L22.5 213.3H22.4V220H20.2V206.1H22.4V212.3H22.5L28.5 206.1H31.3L24.7 212.7L31.4 220Z" fill="#2A2F34"/>
<path d="M33.9 219C33 218.3 32.6 217.3 32.6 216C32.6 214.8 33 213.9 33.9 213.2C34.8 212.5 36.1 212.1 37.8 212L41.7 211.8V210.6C41.7 209.7 41.4 209.1 40.9 208.6C40.4 208.1 39.6 207.9 38.5 207.9C37.7 207.9 37 208.1 36.5 208.5C35.9 208.9 35.6 209.4 35.5 210.1H33.4C33.4 208.9 34 208 35 207.2C36 206.4 37.2 206 38.7 206C40.3 206 41.6 206.4 42.6 207.2C43.6 208 44.1 209.1 44.1 210.5V220H42V217.6H41.9C41.5 218.4 40.9 219 40.1 219.4C39.3 219.9 38.4 220.1 37.4 220.1C35.9 220.1 34.8 219.7 33.9 219ZM40.6 217.2C41.3 216.5 41.7 215.7 41.7 214.7V213.6L38.1 213.8C36 213.9 34.9 214.7 34.9 216C34.9 216.6 35.2 217.2 35.7 217.5C36.2 217.9 36.9 218.1 37.8 218.1C38.9 218.2 39.9 217.8 40.6 217.2Z" fill="#2A2F34"/>
<path d="M47.4 220V206.1H49.6V216.5H49.7L56.8 206.1H59V220H56.8V209.6H56.7L49.6 220H47.4ZM50.8 200C50.8 200.8 51 201.4 51.5 201.9C52 202.4 52.6 202.7 53.3 202.7C54 202.7 54.7 202.4 55.1 201.9C55.5 201.4 55.8 200.8 55.8 200H57.4C57.4 201.2 57 202.1 56.3 202.9C55.5 203.6 54.5 204 53.3 204C52.1 204 51.1 203.6 50.3 202.9C49.5 202.2 49.2 201.2 49.2 200H50.8Z" fill="#2A2F34"/>
<path d="M75.4 220V211.5H65.2V220H62.9V201.4H65.2V209.4H75.4V201.4H77.7V220H75.4Z" fill="#2A2F34"/>
<path d="M82.9 215.8C83.4 217.4 84.5 218.1 86.4 218.1C87.5 218.1 88.5 217.7 89.2 216.9C90 216.1 90.4 215 90.5 213.7H84.1V211.8H90.4C90.2 210.6 89.8 209.7 89.1 209C88.4 208.3 87.5 208 86.4 208C85.5 208 84.7 208.2 84 208.7C83.4 209.1 83 209.7 82.8 210.4H80.6C80.8 209.2 81.4 208.2 82.4 207.3C83.5 206.4 84.8 206 86.4 206C88.3 206 89.8 206.6 91 207.9C92.2 209.2 92.7 210.9 92.7 213C92.7 215.2 92.1 216.9 90.9 218.2C89.7 219.5 88.2 220.1 86.3 220.1C84.8 220.1 83.5 219.7 82.4 218.9C81.4 218.1 80.7 217.1 80.5 215.8H82.9Z" fill="#2A2F34"/>
<path d="M105.5 208H101V220H98.8V208H94.3V206.1H105.5V208Z" fill="#2A2F34"/>
<path d="M107.7 219.7C107.4 219.4 107.3 219.1 107.3 218.7C107.3 218.3 107.4 217.9 107.7 217.7C108 217.4 108.3 217.3 108.7 217.3C109.1 217.3 109.5 217.4 109.7 217.7C110 218 110.1 218.3 110.1 218.7C110.1 219.1 110 219.5 109.7 219.7C109.4 220 109.1 220.1 108.7 220.1C108.3 220.1 108 220 107.7 219.7Z" fill="#2A2F34"/>
<path d="M135 203.7C136.5 205.4 137.3 207.8 137.3 210.7C137.3 213.7 136.5 216 135 217.7C133.5 219.4 131.4 220.3 128.7 220.3C126.1 220.3 124 219.4 122.4 217.7C120.9 216 120.1 213.7 120.1 210.7C120.1 207.7 120.9 205.4 122.4 203.7C123.9 202 126 201.1 128.7 201.1C131.3 201.1 133.4 202 135 203.7ZM124.2 205.2C123.1 206.5 122.5 208.4 122.5 210.7C122.5 213 123.1 214.8 124.2 216.1C125.3 217.4 126.8 218.1 128.7 218.1C130.6 218.1 132.1 217.4 133.2 216.1C134.3 214.8 134.9 212.9 134.9 210.7C134.9 208.4 134.4 206.6 133.2 205.2C132.1 203.9 130.6 203.2 128.7 203.2C126.8 203.2 125.3 203.9 124.2 205.2Z" fill="#2A2F34"/>
<path d="M149.5 208H142.6V220H140.4V206.1H151.7V220H149.5V208Z" fill="#2A2F34"/>
<path d="M166.7 216C166.5 217.2 165.9 218.2 164.8 218.9C163.7 219.7 162.4 220.1 161 220.1C159.1 220.1 157.5 219.5 156.4 218.2C155.3 216.9 154.7 215.2 154.7 213.1C154.7 210.9 155.3 209.2 156.4 207.9C157.5 206.6 159.1 206 160.9 206C162.8 206 164.2 206.6 165.3 207.8C166.4 209 166.9 210.7 166.9 212.8V213.7H156.9V213.8C156.9 215.1 157.3 216.2 158 217C158.7 217.8 159.7 218.2 161 218.2C161.9 218.2 162.6 218 163.3 217.6C163.9 217.2 164.3 216.7 164.5 216.1H166.7V216ZM158.1 209C157.4 209.7 157 210.7 156.9 211.8H164.5C164.5 210.6 164.1 209.7 163.4 209C162.7 208.3 161.8 207.9 160.7 207.9C159.7 207.9 158.8 208.3 158.1 209Z" fill="#2A2F34"/>
<path d="M180.7 207.9C181.8 209.2 182.3 210.9 182.3 213C182.3 215.1 181.8 216.8 180.7 218.1C179.6 219.4 178.2 220 176.4 220C174.4 220 172.9 219.2 172 217.6V217.6V224.5H169.8V206H171.9V208.3H172C172.4 207.6 173 207 173.8 206.6C174.6 206.2 175.5 206 176.5 206C178.2 206 179.6 206.6 180.7 207.9ZM179 216.7C179.7 215.8 180.1 214.5 180.1 213C180.1 211.5 179.7 210.2 179 209.3C178.3 208.4 177.3 207.9 176.1 207.9C174.9 207.9 173.9 208.4 173.2 209.3C172.5 210.2 172.1 211.5 172.1 213C172.1 214.5 172.5 215.7 173.2 216.7C173.9 217.6 174.9 218.1 176.1 218.1C177.2 218.1 178.2 217.7 179 216.7Z" fill="#2A2F34"/>
<path d="M185.9 219C185 218.3 184.6 217.3 184.6 216C184.6 214.8 185 213.9 185.9 213.2C186.8 212.5 188.1 212.1 189.8 212L193.7 211.8V210.6C193.7 209.7 193.4 209.1 192.9 208.6C192.4 208.1 191.6 207.9 190.5 207.9C189.7 207.9 189 208.1 188.5 208.5C187.9 208.9 187.6 209.4 187.5 210.1H185.4C185.4 208.9 186 208 187 207.2C188 206.4 189.2 206 190.7 206C192.3 206 193.6 206.4 194.6 207.2C195.6 208 196.1 209.1 196.1 210.5V220H194V217.6H193.9C193.5 218.4 192.9 219 192.1 219.4C191.3 219.9 190.4 220.1 189.4 220.1C187.9 220.1 186.8 219.7 185.9 219ZM192.6 217.2C193.3 216.5 193.7 215.7 193.7 214.7V213.6L190.1 213.8C188 213.9 186.9 214.7 186.9 216C186.9 216.6 187.2 217.2 187.7 217.5C188.2 217.9 188.9 218.1 189.8 218.1C190.9 218.2 191.8 217.8 192.6 217.2Z" fill="#2A2F34"/>
<path d="M209.2 208H204.7V220H202.5V208H198V206.1H209.2V208Z" fill="#2A2F34"/>
<path d="M212.4 218.2C211.2 216.9 210.7 215.2 210.7 213.1C210.7 210.9 211.3 209.2 212.4 208C213.6 206.7 215.1 206.1 217.1 206.1C219 206.1 220.6 206.7 221.8 208C223 209.3 223.5 211 223.5 213.1C223.5 215.3 222.9 217 221.8 218.2C220.6 219.5 219.1 220.1 217.1 220.1C215.1 220.1 213.6 219.5 212.4 218.2ZM220.1 216.8C220.8 215.9 221.2 214.7 221.2 213.1C221.2 211.5 220.8 210.3 220.1 209.4C219.4 208.5 218.4 208.1 217.1 208.1C215.8 208.1 214.8 208.5 214.1 209.4C213.4 210.3 213 211.5 213 213.1C213 214.7 213.4 215.9 214.1 216.8C214.8 217.7 215.8 218.1 217.1 218.1C218.4 218.1 219.4 217.7 220.1 216.8Z" fill="#2A2F34"/>
<path d="M237.3 207.9C238.4 209.2 238.9 210.9 238.9 213C238.9 215.1 238.4 216.8 237.3 218.1C236.2 219.4 234.8 220 233 220C231 220 229.5 219.2 228.6 217.6H228.5V224.5H226.3V206H228.4V208.3H228.5C228.9 207.6 229.5 207 230.3 206.6C231.1 206.2 232 206 233 206C234.8 206 236.2 206.6 237.3 207.9ZM235.5 216.7C236.2 215.8 236.6 214.5 236.6 213C236.6 211.5 236.2 210.2 235.5 209.3C234.8 208.4 233.8 207.9 232.6 207.9C231.4 207.9 230.4 208.4 229.7 209.3C229 210.2 228.6 211.5 228.6 213C228.6 214.5 229 215.7 229.7 216.7C230.4 217.6 231.4 218.1 232.6 218.1C233.8 218.1 234.8 217.7 235.5 216.7Z" fill="#2A2F34"/>
<path d="M257.6 210.4C257.4 209.7 257 209.1 256.4 208.7C255.8 208.2 255 208 254 208C252.8 208 251.8 208.5 251.1 209.4C250.3 210.3 250 211.6 250 213.1C250 214.7 250.4 215.9 251.1 216.8C251.8 217.7 252.8 218.2 254 218.2C255.9 218.2 257.1 217.4 257.5 215.9H259.7C259.5 217.2 258.8 218.2 257.8 219C256.7 219.8 255.5 220.2 253.9 220.2C252 220.2 250.4 219.6 249.3 218.3C248.1 217 247.5 215.3 247.5 213.1C247.5 211 248.1 209.3 249.2 208C250.4 206.7 251.9 206.1 253.8 206.1C255.4 206.1 256.7 206.5 257.8 207.4C258.8 208.2 259.4 209.2 259.6 210.5H257.6V210.4Z" fill="#2A2F34"/>
<path d="M262.5 206.1H268.4C269.7 206.1 270.7 206.4 271.4 207.1C272.1 207.7 272.5 208.6 272.5 209.7C272.5 210.4 272.3 211 271.8 211.6C271.4 212.2 270.8 212.5 270.2 212.7V212.8C271.1 212.9 271.8 213.3 272.3 213.9C272.8 214.5 273.1 215.2 273.1 216.1C273.1 217.3 272.7 218.3 271.8 219C270.9 219.7 269.8 220.1 268.3 220.1H262.3V206.1H262.5ZM264.7 208V211.9H267.8C269.5 211.9 270.4 211.2 270.4 209.9C270.4 208.6 269.6 208 268.1 208H264.7V208ZM264.7 213.7V218.1H268.4C270.1 218.1 271 217.4 271 215.9C271 214.4 270 213.7 268 213.7H264.7Z" fill="#2A2F34"/>
<path d="M283.8 215H281.3L277.8 220H275.2L279.1 214.6C278.1 214.3 277.4 213.8 276.8 213.2C276.2 212.5 276 211.7 276 210.7C276 209.3 276.5 208.2 277.4 207.3C278.3 206.5 279.6 206.1 281.2 206.1H286.1V220H283.9V215H283.8ZM283.8 213.2V208H281.1C280.2 208 279.5 208.2 278.9 208.7C278.4 209.2 278.1 209.8 278.1 210.7C278.1 211.4 278.4 212 278.9 212.5C279.4 213 280.2 213.2 281.1 213.2H283.8Z" fill="#2A2F34"/>
<path d="M290.4 219.2C289.4 218.5 288.8 217.6 288.7 216.4H291C291.1 217 291.5 217.5 292 217.8C292.6 218.1 293.3 218.3 294.1 218.3C295.1 218.3 295.9 218.1 296.5 217.6C297 217.2 297.3 216.6 297.3 215.9C297.3 214.4 296.2 213.6 294.1 213.6H292V211.7H294.1C295.9 211.7 296.8 211 296.8 209.6C296.8 209 296.6 208.5 296.2 208.1C295.7 207.7 295.1 207.5 294.2 207.5C293.4 207.5 292.7 207.7 292.1 208C291.6 208.3 291.2 208.8 291.1 209.3H289C289.1 208.2 289.7 207.3 290.6 206.6C291.5 205.9 292.7 205.6 294.2 205.6C295.7 205.6 296.9 205.9 297.8 206.6C298.6 207.3 299 208.2 299 209.3C299 210 298.8 210.7 298.4 211.2C298 211.8 297.4 212.1 296.7 212.3V212.4C298.6 212.8 299.5 213.9 299.5 215.6C299.5 216.9 299 217.9 298 218.7C297 219.5 295.7 219.9 294.1 219.9C292.6 220.2 291.4 219.9 290.4 219.2Z" fill="#2A2F34"/>
<path d="M302.5 220V206.1H304.7V216.5H304.8L311.9 206.1H314.1V220H311.9V209.6H311.8L304.7 220H302.5Z" fill="#2A2F34"/>
</svg>
