<?xml version="1.0" standalone="no"?>
<!DOCTYPE svg PUBLIC "-//W3C//DTD SVG 20010904//EN"
 "http://www.w3.org/TR/2001/REC-SVG-20010904/DTD/svg10.dtd">
<svg version="1.0" xmlns="http://www.w3.org/2000/svg"
 width="7215.000000pt" height="2985.000000pt" viewBox="0 0 7215.000000 2985.000000"
 preserveAspectRatio="xMidYMid meet">
<metadata>
Created by potrace 1.14, written by Peter Selinger 2001-2017
</metadata>
<g transform="translate(0.000000,2985.000000) scale(0.100000,-0.100000)"
fill="#f6a409" stroke="none">
<path d="M38610 29829 c-261 -19 -565 -60 -807 -109 -205 -42 -444 -102 -441
-110 2 -4 39 -35 83 -68 787 -592 1557 -1548 2064 -2561 486 -969 764 -2001
831 -3081 13 -214 13 -691 0 -895 -85 -1307 -538 -2600 -1328 -3785 -471 -708
-1048 -1340 -1594 -1746 -54 -40 -95 -75 -90 -77 4 -3 90 -26 190 -51 295 -74
610 -128 942 -162 212 -21 769 -30 990 -15 751 50 1427 210 2099 498 1979 846
3405 2653 3761 4766 194 1154 70 2341 -359 3415 -574 1440 -1667 2630 -3051
3323 -766 384 -1546 596 -2415 659 -160 11 -718 11 -875 -1z"/>
</g>
<g transform="translate(0.000000,2985.000000) scale(0.100000,-0.100000)"
fill="#0096db" stroke="none">
<path d="M32112 29799 c-1775 -96 -3430 -937 -4559 -2315 -648 -790 -1098
-1730 -1302 -2716 -94 -457 -131 -822 -131 -1303 0 -450 31 -789 111 -1205 34
-178 119 -530 128 -529 3 0 34 39 69 87 151 211 416 503 697 769 826 782 1922
1437 3010 1798 1109 369 2200 464 3390 294 1514 -216 2998 -908 4140 -1931
310 -277 709 -709 874 -945 12 -18 26 -33 30 -33 15 0 104 395 146 645 56 339
76 558 82 930 6 352 -4 575 -38 864 -131 1112 -550 2160 -1221 3056 -1273
1700 -3306 2650 -5426 2534z"/>
</g>
<g transform="translate(0.000000,2985.000000) scale(0.100000,-0.100000)"
fill="#009846" stroke="none">
<path d="M32230 23219 c-1781 -75 -3444 -902 -4597 -2284 -788 -945 -1285
-2109 -1422 -3330 -199 -1767 331 -3497 1484 -4850 164 -192 498 -526 690
-690 830 -708 1813 -1188 2866 -1400 474 -95 894 -132 1389 -122 392 8 696 39
1060 107 159 30 511 114 536 128 10 6 -3 20 -48 52 -344 240 -831 720 -1199
1180 -505 631 -921 1338 -1226 2085 -274 670 -443 1350 -519 2090 -35 346 -30
1020 12 1425 124 1212 533 2395 1189 3436 445 706 996 1332 1590 1809 61 48
125 97 142 109 18 12 33 24 33 28 0 8 -339 90 -505 122 -293 56 -593 90 -930
106 -230 10 -286 10 -545 -1z"/>
</g>
<g transform="translate(0.000000,2985.000000) scale(0.100000,-0.100000)"
fill="#e31e24" stroke="none">
<path d="M45028 18567 c-262 -353 -680 -778 -1093 -1113 -1202 -975 -2627
-1600 -4030 -1768 -701 -84 -1426 -64 -2158 60 -1586 268 -3124 1058 -4242
2179 -214 215 -459 496 -591 679 l-21 30 -18 -60 c-31 -107 -94 -396 -124
-574 -450 -2636 796 -5263 3124 -6588 770 -439 1610 -704 2527 -798 213 -21
766 -30 998 -15 987 65 1910 342 2756 826 1199 688 2145 1753 2687 3025 542
1273 650 2702 307 4054 -22 88 -42 161 -43 163 -2 1 -37 -44 -79 -100z"/>
</g>
<g transform="translate(0.000000,2985.000000) scale(0.100000,-0.100000)"
fill="#000" stroke="none">
<path d="M10 9605 l0 -935 1715 0 1715 0 0 -2645 0 -2645 1755 0 1755 0 0
2645 0 2645 1713 0 c1319 0 1716 3 1725 12 17 17 17 1829 0 1846 -9 9 -1177
12 -5195 12 l-5183 0 0 -935z"/>
<path d="M11200 6060 l0 -2680 3565 0 3565 0 0 730 0 730 -2245 0 -2245 0 0
345 0 345 2050 0 2050 0 -2 568 -3 567 -2047 3 -2048 2 0 345 0 345 2245 0
2245 0 0 690 0 690 -3565 0 -3565 0 0 -2680z"/>
<path d="M19170 6060 l0 -2680 3385 0 3385 0 0 730 0 730 -2050 0 -2050 0 0
1950 0 1950 -1335 0 -1335 0 0 -2680z"/>
<path d="M26650 6060 l0 -2680 3580 0 3580 0 0 730 0 730 -2255 0 -2255 0 0
345 0 345 2045 0 2045 0 0 570 0 570 -2045 0 -2045 0 0 345 0 345 2255 0 2255
0 0 690 0 690 -3580 0 -3580 0 0 -2680z"/>
<path d="M36475 8729 c-499 -32 -1014 -137 -1249 -256 -252 -127 -438 -338
-526 -597 -69 -202 -65 -96 -65 -1796 0 -1440 1 -1540 18 -1624 59 -290 189
-518 383 -676 246 -198 631 -307 1329 -377 155 -15 429 -17 3033 -20 l2862 -4
0 731 0 730 -2495 0 -2495 0 0 1260 0 1260 2495 0 2495 0 0 690 0 690 -2827
-1 c-1556 -1 -2886 -6 -2958 -10z"/>
<path d="M44855 8733 c-794 -42 -1383 -249 -1643 -577 -101 -127 -174 -290
-212 -475 -20 -97 -20 -135 -20 -1593 0 -1624 -1 -1577 56 -1760 91 -289 304
-537 580 -676 252 -127 771 -229 1338 -262 235 -13 3949 -13 4216 0 686 35
1155 153 1477 371 80 54 214 198 265 284 91 152 154 343 177 530 7 62 11 548
11 1540 0 1554 0 1546 -50 1710 -49 157 -170 342 -296 450 -306 263 -792 413
-1474 455 -148 9 -4258 12 -4425 3z m3625 -2633 l0 -1260 -1445 0 -1445 0 0
1260 0 1260 1445 0 1445 0 0 -1260z"/>
<path d="M53211 8663 c-28 -175 -163 -785 -726 -3303 -249 -1115 -425 -1931
-425 -1974 0 -4 584 -6 1299 -6 l1299 0 5 27 c21 117 174 864 248 1212 169
794 246 1212 274 1491 8 85 17 162 18 170 8 48 316 -744 710 -1825 81 -220
202 -551 270 -735 l125 -335 1099 -3 1100 -2 548 1437 c301 791 551 1444 555
1452 4 7 10 -31 14 -85 12 -158 61 -473 106 -679 35 -162 430 -2109 430 -2121
0 -2 590 -4 1311 -4 1243 0 1310 1 1305 18 -23 77 -308 1359 -501 2252 -271
1258 -441 2036 -551 2520 -63 278 -118 520 -121 538 l-6 32 -1583 0 -1582 0
-7 -32 c-4 -18 -43 -123 -87 -233 -139 -348 -885 -2328 -892 -2370 -22 -125
-55 -173 -56 -81 0 55 -45 247 -91 392 -57 179 -133 377 -279 729 -70 171
-180 443 -243 605 -63 162 -164 419 -225 570 -60 151 -117 299 -127 328 -9 29
-26 62 -38 73 -20 19 -49 19 -1592 19 l-1571 0 -13 -77z"/>
<path d="M65385 8733 c-546 -28 -1161 -181 -1421 -352 -201 -133 -343 -333
-413 -583 -52 -186 -51 -114 -51 -2345 l0 -2073 1305 0 1305 0 0 1075 0 1075
1460 0 1460 0 0 -1075 0 -1075 1305 0 1305 0 0 2680 0 2680 -3097 -2 c-1704
-1 -3125 -3 -3158 -5z m3643 -1720 l2 -393 -1460 0 -1460 0 0 388 c0 214 3
392 7 395 3 4 659 6 1457 5 l1451 -3 3 -392z"/>
<path d="M45394 2323 c13 -95 79 -199 157 -249 99 -62 271 -72 380 -22 101 46
173 140 198 256 6 29 11 55 11 57 0 3 -38 5 -85 5 -81 0 -85 -1 -85 -22 0 -43
-43 -102 -90 -125 -52 -27 -170 -32 -223 -9 -43 17 -84 67 -97 116 l-11 40
-81 0 -81 0 7 -47z"/>
<path d="M21446 1864 c-260 -58 -418 -244 -457 -539 -13 -102 -6 -237 17 -335
55 -226 220 -389 444 -436 92 -20 277 -14 360 11 127 38 239 126 303 236 33
57 80 190 70 199 -7 6 -251 48 -306 53 -13 2 -23 -14 -41 -66 -39 -117 -107
-167 -226 -167 -176 0 -264 113 -277 360 -12 215 37 348 151 407 41 21 162 29
210 13 67 -22 121 -84 139 -161 l7 -27 67 13 c38 7 112 20 166 30 54 9 97 22
97 28 0 6 -20 52 -44 102 -70 144 -162 222 -316 270 -79 24 -276 29 -364 9z"/>
<path d="M24263 1866 c-137 -32 -277 -135 -351 -259 -97 -162 -126 -420 -71
-635 51 -202 189 -349 379 -407 86 -26 271 -31 363 -11 167 37 291 131 368
279 22 43 39 81 36 83 -6 6 -284 54 -312 54 -15 0 -28 -15 -47 -54 -57 -116
-175 -154 -303 -97 -83 37 -146 130 -160 239 l-7 52 426 0 426 0 0 48 c0 73
-19 221 -37 287 -54 205 -192 352 -383 410 -77 23 -249 28 -327 11z m231 -257
c49 -13 124 -82 147 -135 10 -22 21 -66 25 -97 l7 -57 -253 0 -253 0 6 59 c15
170 161 274 321 230z"/>
<path d="M27353 1865 c-85 -23 -153 -64 -220 -130 l-63 -63 0 89 0 89 -155 0
-155 0 0 -885 0 -885 165 0 165 0 1 288 c1 158 0 302 -1 320 -1 17 3 32 9 32
6 0 11 -4 11 -8 0 -12 118 -106 160 -127 124 -64 301 -58 434 13 69 37 174
144 213 217 125 238 116 622 -20 825 -125 188 -344 279 -544 225z m132 -279
c63 -29 97 -66 129 -136 61 -133 57 -381 -7 -506 -23 -45 -100 -111 -143 -123
-139 -39 -267 25 -330 164 -51 111 -58 322 -15 436 60 159 223 233 366 165z"/>
<path d="M36145 1864 c-89 -20 -197 -72 -257 -124 -211 -183 -271 -598 -130
-890 73 -150 218 -259 392 -296 92 -20 277 -14 360 11 127 38 239 126 303 236
33 57 80 190 70 199 -7 6 -251 48 -306 53 -13 2 -23 -14 -41 -66 -38 -113
-108 -167 -217 -167 -90 0 -137 17 -191 71 -60 60 -87 142 -95 289 -12 215 37
348 151 407 41 21 162 29 210 13 67 -22 121 -84 139 -161 l7 -27 67 13 c38 7
112 20 166 30 54 9 97 22 97 28 0 6 -20 52 -44 102 -70 143 -163 223 -316 270
-79 24 -276 29 -365 9z"/>
<path d="M50578 1870 c-207 -37 -374 -159 -456 -331 -58 -119 -74 -193 -74
-324 0 -209 59 -373 176 -489 191 -191 531 -242 786 -118 89 44 219 166 267
252 118 209 116 506 -4 708 -77 130 -205 233 -347 278 -89 28 -261 40 -348 24z
m247 -294 c106 -50 167 -142 187 -284 21 -154 -18 -308 -99 -389 -56 -56 -105
-77 -195 -81 -65 -3 -85 0 -131 21 -108 49 -168 140 -189 285 -13 96 0 217 31
287 27 61 97 134 156 161 70 33 171 33 240 0z"/>
<path d="M56440 1864 c-205 -44 -364 -206 -426 -434 -26 -92 -26 -358 -1 -450
75 -278 263 -425 557 -437 241 -10 415 67 524 230 37 57 72 134 64 143 -7 6
-284 54 -314 54 -15 0 -24 -8 -28 -26 -12 -45 -55 -100 -99 -124 -58 -33 -153
-33 -219 -1 -85 41 -144 131 -155 237 l-6 54 423 0 423 0 -6 122 c-6 140 -31
249 -79 348 -43 90 -151 196 -240 239 -121 57 -282 75 -418 45z m256 -268 c83
-39 131 -113 149 -233 l7 -43 -257 0 -257 0 7 53 c14 109 64 182 150 223 66
31 134 31 201 0z"/>
<path d="M59535 1866 c-102 -27 -194 -85 -254 -160 l-31 -39 0 92 0 91 -160 0
-160 0 2 -882 3 -883 168 -3 167 -2 0 321 0 322 43 -40 c103 -95 185 -133 303
-140 147 -10 256 32 370 140 82 77 130 160 166 282 20 70 23 102 23 250 -1
187 -12 247 -66 361 -59 125 -175 233 -296 276 -72 26 -209 33 -278 14z m121
-275 c80 -36 142 -123 165 -233 18 -83 7 -302 -19 -368 -56 -144 -185 -210
-326 -168 -62 19 -148 108 -176 183 -35 90 -41 297 -11 392 29 99 91 171 169
199 54 19 150 17 198 -5z"/>
<path d="M62285 1870 c-181 -27 -291 -102 -360 -245 -58 -119 -63 -109 67
-133 210 -39 194 -39 207 1 17 49 74 102 127 117 28 8 74 11 124 7 128 -8 178
-49 187 -155 l6 -60 -64 -20 c-35 -11 -141 -36 -236 -56 -250 -53 -312 -77
-390 -149 -145 -133 -144 -391 1 -525 90 -83 205 -119 349 -109 109 7 192 38
284 104 41 29 77 53 78 51 1 -2 11 -30 22 -63 l20 -60 167 -3 c158 -2 168 -1
161 15 -60 144 -58 125 -65 583 -5 271 -11 438 -18 460 -43 133 -165 216 -354
240 -92 11 -237 11 -313 0z m353 -797 c-6 -121 -20 -163 -68 -211 -95 -91
-244 -108 -330 -36 -38 33 -64 102 -56 149 12 62 57 102 150 129 81 25 269 72
295 75 11 1 13 -18 9 -106z"/>
<path d="M67880 1866 c-311 -66 -510 -317 -510 -647 0 -304 128 -519 369 -620
298 -124 631 -48 807 184 52 68 105 176 122 248 32 130 24 294 -19 423 -64
189 -234 348 -429 402 -79 21 -260 27 -340 10z m241 -278 c130 -44 206 -163
216 -340 12 -199 -57 -348 -191 -409 -28 -13 -64 -19 -116 -19 -128 0 -219 61
-277 185 -27 57 -28 67 -28 205 0 138 1 148 28 205 40 86 100 144 176 171 45
16 147 18 192 2z"/>
<path d="M71023 1865 c-85 -23 -153 -64 -220 -130 l-63 -63 0 89 0 89 -155 0
-155 0 0 -885 0 -885 165 0 165 0 0 314 c0 180 4 317 9 320 5 4 11 2 13 -3 6
-16 113 -103 153 -123 129 -67 304 -63 439 10 69 37 174 144 213 217 125 238
116 622 -20 825 -125 188 -344 279 -544 225z m132 -279 c63 -29 97 -66 129
-136 61 -133 57 -381 -7 -506 -23 -45 -100 -111 -143 -123 -139 -39 -267 25
-330 164 -51 111 -58 322 -15 436 60 159 223 233 366 165z"/>
<path d="M3440 1210 l0 -640 145 0 145 0 2 417 3 418 146 -415 147 -415 147 0
147 0 152 412 151 412 3 -414 2 -415 145 0 145 0 0 640 0 640 -211 -2 -211 -3
-157 -437 c-86 -241 -158 -438 -161 -438 -3 0 -74 198 -159 440 l-154 440
-214 0 -213 0 0 -640z"/>
<path d="M6550 1846 c0 -2 108 -288 240 -635 132 -347 240 -640 240 -650 0
-33 -70 -159 -105 -189 -47 -42 -124 -58 -220 -46 -72 9 -75 9 -75 -11 2 -43
26 -235 32 -240 16 -16 194 -28 271 -17 181 24 282 94 355 245 32 66 572 1522
572 1542 0 3 -78 5 -173 5 l-172 0 -150 -450 c-82 -247 -152 -444 -156 -437
-3 7 -73 209 -154 450 l-148 437 -178 0 c-99 0 -179 -2 -179 -4z"/>
<path d="M9618 1355 l-3 -494 -23 -23 c-21 -21 -31 -23 -117 -21 l-95 2 0
-124 0 -124 48 -8 c26 -4 106 -8 177 -8 192 0 253 31 311 160 36 78 44 181 44
536 l0 329 230 0 230 0 0 -505 0 -505 170 0 170 0 0 640 0 640 -570 0 -569 0
-3 -495z"/>
<path d="M12590 1210 l0 -640 404 0 c452 0 534 8 643 61 132 64 189 168 181
332 -3 81 -8 100 -38 155 -89 166 -199 202 -627 202 l-223 0 0 265 0 265 -170
0 -170 0 0 -640z m783 -121 c81 -27 118 -98 96 -183 -13 -53 -50 -90 -104
-105 -22 -6 -127 -11 -237 -11 l-198 0 0 161 0 161 203 -5 c129 -3 216 -9 240
-18z"/>
<path d="M15210 1715 l0 -135 205 0 205 0 0 -505 0 -505 170 0 170 0 0 505 0
505 205 0 205 0 0 135 0 135 -580 0 -580 0 0 -135z"/>
<path d="M18050 1210 l0 -640 162 2 163 3 260 402 260 402 3 -404 2 -405 165
0 165 0 0 640 0 640 -169 0 -169 0 -258 -400 -259 -399 -3 399 -2 400 -160 0
-160 0 0 -640z"/>
<path d="M29760 1210 l0 -640 433 0 c254 0 459 4 497 11 231 37 360 223 294
427 -27 82 -79 142 -161 183 l-72 36 38 18 c53 23 115 89 143 150 17 39 22 68
22 130 -1 131 -53 218 -165 275 -87 45 -147 50 -601 50 l-428 0 0 -640z m750
404 c61 -18 97 -52 106 -101 14 -76 -33 -148 -114 -174 -20 -7 -119 -14 -219
-16 l-183 -5 0 163 0 162 179 -7 c114 -4 197 -12 231 -22z m30 -524 c131 -48
144 -217 22 -273 -42 -20 -68 -22 -254 -25 l-208 -4 0 162 0 162 203 -4 c130
-3 214 -9 237 -18z"/>
<path d="M32750 1210 l0 -640 162 2 163 3 260 402 260 401 3 -404 2 -404 165
0 165 0 0 640 0 640 -169 0 -169 0 -258 -400 -259 -399 -3 399 -2 400 -160 0
-160 0 0 -640z"/>
<path d="M38600 1210 l0 -640 165 0 165 0 2 268 3 267 243 3 242 2 0 -270 0
-270 170 0 170 0 0 640 0 640 -170 0 -170 0 0 -235 0 -235 -242 2 -243 3 -3
233 -2 232 -165 0 -165 0 0 -640z"/>
<path d="M41590 1209 l0 -640 443 3 c469 5 488 6 603 57 58 26 121 86 152 145
25 47 27 61 27 166 0 102 -3 120 -24 160 -59 111 -130 169 -244 196 -56 14
-132 18 -344 22 l-273 4 0 264 0 264 -170 0 -170 0 0 -641z m784 -118 c76 -24
116 -98 97 -181 -22 -100 -80 -120 -348 -120 l-193 0 0 161 0 161 203 -5 c117
-2 218 -9 241 -16z"/>
<path d="M43020 1210 l0 -640 168 2 167 3 3 638 2 637 -170 0 -170 0 0 -640z"/>
<path d="M45170 1210 l0 -640 162 2 162 3 261 402 260 403 3 -405 2 -405 165
0 165 0 0 640 0 640 -171 -2 -171 -3 -257 -396 -256 -397 -3 399 -2 399 -160
0 -160 0 0 -640z"/>
<path d="M53100 1210 l0 -640 170 0 170 0 0 505 0 505 230 0 230 0 0 -505 0
-505 170 0 170 0 0 640 0 640 -570 0 -570 0 0 -640z"/>
<path d="M64630 1715 l0 -135 205 0 205 0 2 -502 3 -503 168 -3 167 -2 0 505
0 505 205 0 205 0 0 135 0 135 -580 0 -580 0 0 -135z"/>
</g>
</svg>
