<svg width="499" height="164" viewBox="0 0 499 164" fill="none" xmlns="http://www.w3.org/2000/svg">
<path d="M206.686 95.8C198.686 49.4 158.286 14 109.486 14C64.9864 14 27.3864 43.5 15.0864 83.9L18.5864 84.6L22.0864 85.3C33.6864 48.1 68.3864 21 109.486 21C154.986 21 192.686 54.2 199.786 97.7L203.186 96.7L206.686 95.8Z" fill="#14AA4B"/>
<path d="M250.986 121.4H242.686L242.586 123.4C242.586 124.9 242.486 126.5 241.986 128.3C241.586 129.7 241.086 131.3 240.186 132.9H239.086V138.9H241.886V135H249.886V138.9H252.686V132.9H250.986V121.4V121.4ZM248.086 132.9H242.886C243.486 131.8 243.986 130.4 244.386 129.1C244.686 127.9 244.886 126.3 244.986 124.8L245.086 123.5H248.186V132.9H248.086ZM261.686 121C260.586 121 259.086 121.4 257.986 122.6C257.986 122.1 257.886 121.5 257.786 121L255.086 121.5C255.186 122.1 255.386 123.1 255.386 124.9V140.9L258.286 140.2V136.2C258.286 135.7 258.286 135 258.186 134.3C259.486 135.3 260.686 135.4 261.386 135.4C263.186 135.4 264.286 134.7 264.886 134.1C265.986 133 266.886 131.1 266.886 128.1C266.886 125 265.986 123.3 265.086 122.4C264.386 121.7 263.286 121 261.686 121ZM262.486 132.3C262.086 132.7 261.586 132.9 260.986 132.9C259.886 132.9 258.986 132.4 258.286 131.7V124.9C258.886 124.3 259.886 123.5 261.286 123.5C261.886 123.5 262.386 123.6 262.786 124.1C263.586 124.9 263.686 126.4 263.686 128.2C263.686 129.3 263.686 131.2 262.486 132.3ZM277.886 121.4H281.086L275.986 136C275.286 138.1 274.486 139 274.086 139.4C273.186 140.3 272.286 140.6 270.886 140.9L269.886 139C271.186 138.7 271.786 138.2 272.186 137.8C272.486 137.5 273.186 136.7 273.586 135.1H272.686C272.186 133.2 271.786 132.1 271.486 131.2L268.286 121.6L271.286 121.1L273.786 129.4C273.986 130.1 274.286 131.5 274.486 132.5H274.586C274.886 131.3 275.286 129.9 275.586 128.8L277.886 121.4ZM291.186 128.8C291.686 129.3 292.086 130 292.086 131.1C292.086 132.3 291.586 133.4 290.886 134.1C289.986 135 288.486 135.5 286.686 135.5C284.786 135.5 283.586 135 282.986 134.7C282.486 134.4 281.986 134 281.786 133.8L283.086 131.9C283.486 132.3 283.986 132.6 284.486 132.8C285.186 133.1 285.786 133.3 286.486 133.3C287.386 133.3 287.986 133.1 288.286 132.7C288.686 132.3 288.886 131.8 288.886 131.2C288.886 130.6 288.686 130.1 288.286 129.8C287.686 129.3 286.786 129.2 286.286 129.2H284.786V126.9H286.386C286.886 126.9 287.586 126.8 288.186 126.4C288.486 126.1 288.686 125.7 288.686 125.2C288.686 124.8 288.586 124.4 288.186 124C287.786 123.6 287.086 123.4 286.386 123.4C285.486 123.4 284.886 123.7 284.586 123.7C284.186 123.9 283.686 124.2 283.386 124.4L282.186 122.5C282.686 122.1 283.386 121.7 284.086 121.5C285.086 121.1 286.086 121 286.886 121C288.086 121 289.586 121.2 290.686 122.2C291.186 122.7 291.786 123.5 291.786 124.7C291.786 125.5 291.486 126.3 290.886 126.9C290.586 127.2 290.186 127.5 289.586 127.7C290.086 128 290.686 128.3 291.186 128.8ZM300.286 126.4H298.286V121L295.386 121.6V135.1H300.586C302.286 135.1 303.686 134.9 304.686 133.9C305.186 133.4 305.786 132.4 305.786 130.9C305.786 130.1 305.686 128.8 304.686 127.8C303.286 126.4 301.386 126.4 300.286 126.4ZM301.986 132.3C301.486 132.8 300.586 132.9 300.086 132.9H298.386V128.5H299.986C300.586 128.5 301.386 128.6 301.986 129.1C302.486 129.6 302.586 130.3 302.586 130.8C302.486 131.2 302.386 131.9 301.986 132.3ZM308.486 122.6C307.986 123.1 307.386 123.9 307.386 125.2C307.386 126.3 307.786 127 308.286 127.6C308.786 128.1 309.386 128.5 310.386 128.6V128.7C309.986 128.8 309.586 129 309.286 129.3C308.886 129.6 308.786 130 308.586 130.5L308.186 131.7C308.086 132.1 307.886 132.5 307.586 132.8C307.486 132.9 307.186 133.1 306.486 133.3L306.086 133.4L306.586 135.4L307.686 135.3C308.286 135.2 309.486 135.2 310.186 134.4C310.686 133.9 310.886 133.3 310.986 132.7L311.386 131.3C311.486 130.9 311.586 130.4 311.986 130C312.386 129.6 312.886 129.6 313.386 129.6H314.586V135H317.586V121.3H312.486C311.186 121.4 309.586 121.5 308.486 122.6ZM314.586 123.5V127.5H312.886C312.086 127.5 311.486 127.3 311.086 126.9C310.586 126.5 310.586 125.9 310.586 125.4C310.586 125 310.686 124.4 311.086 124C311.586 123.5 312.486 123.5 312.886 123.5H314.586ZM337.086 127.8C337.686 127.6 338.186 127.3 338.486 126.9C338.986 126.3 339.286 125.7 339.286 124.8C339.286 124.1 339.186 123.2 338.386 122.4C337.386 121.4 335.786 121.3 334.886 121.3H329.186V135H335.286C337.486 135 338.586 134.1 338.786 133.9C339.286 133.5 339.886 132.6 339.886 131.1C339.886 130.2 339.686 129.4 338.986 128.7C338.686 128.5 338.086 128 337.086 127.8ZM331.986 123.4H333.986C334.586 123.4 335.186 123.4 335.686 123.8C336.086 124.2 336.186 124.7 336.186 125.2C336.186 125.6 336.086 126.1 335.686 126.5C335.186 127 334.386 127 333.886 127H331.986V123.4ZM336.086 132.5C335.586 132.9 334.786 133 334.186 133H331.986V128.9H334.186C334.686 128.9 335.486 128.9 335.986 129.3C336.586 129.8 336.686 130.5 336.686 131.1C336.686 131.5 336.586 132.1 336.086 132.5ZM350.786 131.8L352.186 133.6C350.986 134.8 349.686 135.4 347.786 135.4C344.086 135.4 341.986 132.8 341.986 128.4C341.986 123.4 344.986 121 347.986 121C349.486 121 350.586 121.4 351.786 122.5L350.286 124.5C349.486 123.8 348.786 123.4 347.986 123.4C347.086 123.4 346.286 123.9 345.786 124.8C345.386 125.6 345.186 126.9 345.186 128.6C345.186 130.5 345.486 131.7 346.086 132.3C346.486 132.8 347.186 133.1 347.886 133.1C348.986 133.1 349.886 132.7 350.786 131.8ZM359.886 121C358.186 121 356.786 121.6 355.686 122.8C354.486 124.2 353.986 125.7 353.986 128.2C353.986 132.6 356.386 135.4 360.286 135.4C362.086 135.4 363.786 134.8 365.186 133.6L363.986 131.8C362.986 132.7 361.886 133.2 360.586 133.2C357.886 133.2 357.186 131.2 357.186 129.3V129.1H365.386V128.5C365.386 125.3 364.786 123.6 363.586 122.5C362.486 121.4 361.186 121 359.886 121ZM357.286 126.8C357.286 124.6 358.186 123.3 359.886 123.3C361.386 123.3 362.386 124.6 362.386 126.8H357.286ZM376.686 123.6H371.486V135.1H368.486V121.4H377.086L376.686 123.6ZM388.386 121.4H380.086L379.986 123.4C379.986 124.9 379.886 126.5 379.386 128.3C378.986 129.7 378.486 131.3 377.586 132.9H376.486V138.9H379.286V135H387.286V138.9H390.086V132.9H388.386V121.4V121.4ZM385.486 132.9H380.386C380.986 131.8 381.486 130.4 381.886 129.1C382.186 127.9 382.386 126.3 382.486 124.8L382.586 123.5H385.686V132.9H385.486ZM402.386 130.6L402.486 126.7C402.486 124.7 402.486 123.9 402.286 123.3C401.686 121.8 400.286 121 398.086 121C395.986 121 394.286 121.6 392.286 122.9L393.586 125C393.586 125 395.686 123.4 397.686 123.4C399.286 123.4 399.586 124.2 399.586 125.8V126.5H398.686C394.286 126.5 391.886 128.1 391.886 131.3C391.886 133.7 393.286 135.4 396.386 135.4C397.886 135.4 399.086 135 400.186 133.8C400.486 134.7 401.186 135.3 402.086 135.6L403.586 133.7C402.486 133 402.386 132.4 402.386 130.6ZM399.386 131.9C398.786 132.8 397.886 133.3 396.886 133.3C395.686 133.3 394.986 132.5 394.986 131.2C394.986 129.5 395.886 128.6 398.886 128.6C399.086 128.6 399.386 128.6 399.386 128.6V131.9ZM420.786 131.8L422.186 133.6C420.986 134.8 419.686 135.4 417.786 135.4C414.086 135.4 411.986 132.8 411.986 128.4C411.986 123.4 414.986 121 417.986 121C419.486 121 420.586 121.4 421.786 122.5L420.286 124.5C419.486 123.8 418.786 123.4 417.986 123.4C417.086 123.4 416.286 123.9 415.786 124.8C415.386 125.6 415.186 126.9 415.186 128.6C415.186 130.5 415.486 131.7 416.086 132.3C416.486 132.8 417.186 133.1 417.886 133.1C418.986 133.1 419.886 132.7 420.786 131.8ZM428.986 121.4H439.586L439.186 123.6H435.686V135.1H432.686V123.6H428.986V121.4ZM445.886 121C442.286 121 439.886 123.8 439.886 128.2C439.886 132.6 442.186 135.4 445.886 135.4C449.586 135.4 451.986 132.7 451.986 128.2C451.986 123.9 449.786 121 445.886 121ZM445.986 133.2C444.186 133.2 443.186 132 443.186 128C443.186 124.7 443.986 123.2 445.886 123.2C447.586 123.2 448.686 124.4 448.686 128.2C448.686 131.8 447.786 133.2 445.986 133.2ZM461.286 121.4C460.186 121.4 459.386 121.6 458.486 122.2C457.886 122.6 457.486 123.1 457.086 123.7H456.986L457.086 122.9C457.186 122.1 457.486 120.3 459.486 119.5L462.986 118C463.386 117.8 463.886 117.7 464.586 117.4C465.186 117.1 465.586 116.9 466.086 116.6L464.986 114.2L463.886 114.8L459.586 116.6C458.586 117 457.586 117.6 456.586 118.5C455.786 119.3 455.286 120.1 454.986 121.2C454.386 123.1 454.286 125.2 454.286 126.8C454.286 129.2 454.386 131.7 455.986 133.6C457.186 135 458.686 135.5 460.386 135.5C462.486 135.5 463.986 134.6 464.886 133.6C465.686 132.7 466.486 131.1 466.486 128.4C466.486 125.4 465.386 123.9 464.986 123.3C464.486 122.3 463.286 121.4 461.286 121.4ZM462.686 132C462.186 132.9 461.386 133.1 460.586 133.1C459.786 133.1 459.086 132.9 458.486 132C457.986 131.2 457.786 129.6 457.786 128.3C457.786 127.2 457.886 125.6 458.486 124.6C458.986 123.7 459.786 123.5 460.586 123.5C461.386 123.5 462.086 123.7 462.686 124.6C463.186 125.5 463.386 127.3 463.386 128.3C463.386 129.5 463.286 131.1 462.686 132ZM475.186 121C471.586 121 469.186 123.8 469.186 128.2C469.186 132.6 471.486 135.4 475.186 135.4C478.886 135.4 481.286 132.7 481.286 128.2C481.286 123.9 478.986 121 475.186 121ZM475.186 133.2C473.386 133.2 472.386 132 472.386 128C472.386 124.7 473.186 123.2 475.086 123.2C476.786 123.2 477.886 124.4 477.886 128.2C477.986 131.8 476.986 133.2 475.186 133.2ZM485.086 117L486.586 116.2C486.686 116.4 486.986 116.7 487.186 116.9C487.586 117.4 488.286 117.8 489.486 117.8C490.586 117.8 491.186 117.4 491.686 116.9C491.886 116.7 492.086 116.4 492.286 116.2L493.786 117C493.286 118.2 492.486 118.9 492.286 119.1C491.386 119.8 490.286 119.9 489.486 119.9C488.686 119.9 487.586 119.8 486.686 119.1C486.386 118.9 485.586 118.2 485.086 117ZM494.986 121V135H491.986V128.8C491.986 127.5 491.986 126.5 492.086 125.3H491.986C491.586 126.4 491.086 127.5 490.586 128.3L486.786 135H483.886V121.5L486.886 120.9V128.1C486.886 129.1 486.786 130.3 486.786 131.2H486.886C487.386 129.9 487.886 128.8 488.386 128L492.086 121.5L494.986 121Z" fill="#F59120"/>
<path fill-rule="evenodd" clip-rule="evenodd" d="M498.486 54.9C499.186 56 499.186 58.9 495.186 60.1C489.986 61.6 484.586 57.6 478.786 59.4C478.486 63 477.786 71 477.186 79.5C476.486 88.5 475.886 97.9 475.986 103C476.086 106.6 466.886 108.2 467.486 100.7C467.686 97.9 467.986 94.5 468.286 90.9V90.8C468.086 81 468.186 70.5 468.986 62.3C468.986 62.2 468.986 62.2 468.986 62.1C469.086 61.2 469.786 59.6 469.986 58.5C462.186 58.1 453.186 61.5 451.186 56.7C450.786 55.7 450.886 53.3 452.986 52.8C465.886 49.9 484.986 51.8 489.986 52.1C494.886 52.6 497.386 53.3 498.486 54.9Z" fill="#802A8D"/>
<path d="M272.986 55.3C272.986 56.4 269.886 66.2 269.786 66.4C269.786 66.5 263.286 92.1 262.286 94.4C262.186 94.6 262.086 94.8 261.986 95C258.986 104.5 255.186 107.4 248.886 109C248.786 109 248.586 109 248.486 109C247.486 109.1 246.586 109.1 245.486 109.1C244.386 109.1 243.586 108.8 242.886 108.1C242.186 107.4 241.886 106.6 241.886 105.5C241.886 103.7 242.786 102.6 244.486 102.2C244.886 102.1 245.286 102.1 245.686 102.1C245.886 102.1 246.086 102.1 246.286 102.1C250.586 102.1 252.986 99.3 255.686 91.6C255.786 91.4 255.986 91.2 255.986 91.1C256.086 91 256.086 90.9 256.086 90.9C251.886 85.5 249.086 81.2 247.686 77.8C246.586 75.2 244.786 71.9 242.186 68.1C239.086 63.4 237.586 59.1 236.686 57.5C236.286 56.8 236.186 56.2 236.186 55.6C236.186 54.6 236.586 53.8 237.286 53C237.986 52.3 238.886 51.9 239.886 51.9C240.986 51.9 241.986 52.5 242.886 53.6C243.486 54.6 244.486 56.1 245.786 58.1C248.286 61.9 249.486 65.7 250.286 67C252.086 69.9 253.486 72.7 254.586 75.2C255.486 77.3 257.386 80 257.486 79.8C257.486 79.8 261.586 69.3 262.386 64.7C262.386 64.6 264.086 57.6 265.786 54.2C266.486 52.6 267.686 51.7 269.186 51.7C270.186 51.7 271.086 52 271.786 52.7C272.686 53.5 272.986 54.3 272.986 55.3Z" fill="#802A8D"/>
<path d="M333.886 85.2C333.886 92 333.486 94.6 329.886 99.1C325.986 103.9 322.086 106.5 315.686 104.7C312.586 103.8 309.586 103.8 309.586 103.8C309.586 103.8 309.986 108.9 309.186 109.8C308.286 110.7 307.986 110.8 306.586 110.8C305.186 110.8 304.086 110.3 303.186 109.4C302.286 108.5 301.886 107.4 301.886 106C301.886 102.9 301.986 104.7 301.986 103.1C298.786 104.7 298.886 104.8 294.286 104.8C287.986 104.8 283.186 103.1 279.586 97.7C276.486 93 275.786 87.4 275.786 80.8C275.786 74 276.886 67 280.186 62.1C283.986 56.5 285.986 53.8 293.286 53.8C294.886 53.8 297.586 55 299.786 56.1C300.986 56.7 302.386 56 302.586 54.7C302.986 51.5 303.686 49.1 306.186 49.1C307.386 49.1 308.486 49.5 309.286 50.4C310.086 51.3 310.586 52.4 310.586 53.6C310.586 53.2 310.386 54.6 310.086 57.9C311.686 56 314.986 54.1 318.286 54.1C324.386 54.1 329.786 57.9 332.786 63.9C335.086 68.4 333.886 77.8 333.886 85.2ZM301.386 92.4C301.386 86.5 301.986 77.2 302.386 72.2C302.986 64.4 299.186 62.9 294.386 61.8C293.986 61.7 293.686 61.7 293.486 61.7C289.786 61.7 288.786 63.3 286.786 67.1C285.086 70.2 283.686 77.9 283.686 81.8C283.686 85.6 284.086 90.1 285.486 93C287.286 96.6 291.486 97 294.886 97.6C300.286 98.4 300.986 92.6 301.386 92.4ZM326.586 87.3C326.586 75.8 326.986 66 322.386 62.7C320.786 61.6 317.686 60.8 315.386 62.1C313.586 63.1 311.786 63.8 310.586 66.8C310.986 74 309.686 86.8 309.686 94.7C313.386 98.4 321.686 98.3 323.786 95.4C325.586 92.8 326.586 91.4 326.586 87.3Z" fill="#802A8D"/>
<path fill-rule="evenodd" clip-rule="evenodd" d="M368.286 94.3C367.086 90.8 371.486 70.4 371.286 67.4C371.086 62.7 369.986 58.3 368.586 56.3C366.986 54 364.486 52.2 362.186 51.6C357.486 50.4 352.386 52.7 350.386 55.3C348.386 58 346.086 63.4 346.286 67.3C346.386 69.1 349.086 70.7 351.586 68.6C354.286 66.2 352.786 60.4 357.386 58.9C358.986 58.3 360.186 58.6 362.386 61.7C364.386 64.5 365.386 71.4 363.986 74.2C360.986 80 354.186 76.4 349.886 77.3C345.386 78.2 341.686 83.3 340.586 89.3C339.286 96.2 342.486 102.5 346.386 104.1C357.986 108.8 368.286 104 370.686 100.9C372.986 98 369.486 97.8 368.286 94.3ZM360.486 96.3C360.286 97.6 359.286 98.5 358.186 99.1C355.686 100.2 352.186 100.4 349.986 98.4C348.186 96 347.386 93.1 347.986 89.9C348.786 86.8 351.286 83.5 354.786 83C357.186 83 360.286 82.5 361.286 85.1C361.786 89.2 359.386 92.5 360.486 96.3Z" fill="#802A8D"/>
<path fill-rule="evenodd" clip-rule="evenodd" d="M436.886 77.1C440.186 77.2 449.286 79.2 451.186 74.7C451.786 73.2 451.286 71.9 450.586 71.5C446.886 69.5 447.686 64.6 446.386 61.2C445.286 58.4 443.486 55.9 440.786 54.1C436.986 51.7 429.586 52.1 426.786 55C423.286 58.7 421.586 61.6 419.886 67C418.286 72.1 416.686 79.9 417.386 87.2C418.486 98.8 425.886 103.1 433.786 105.6C439.886 107.5 446.786 102.3 448.886 99.3C451.486 95.4 451.786 86.3 446.086 86.9C441.386 87.4 443.586 92.2 441.986 95.4C440.786 97.7 437.786 99.1 435.486 98.4C433.586 97.9 425.286 94.4 425.286 88.4C425.286 83.5 422.786 79.8 425.886 77C428.086 75 432.386 76.9 436.886 77.1ZM433.286 60C435.786 59.1 438.586 60.9 439.386 62.9C440.186 64.9 441.186 68 439.686 69C437.486 70.4 433.286 68.6 430.386 68.7C429.386 68.7 428.686 68.3 428.586 67.5C428.486 66.2 430.186 61.1 433.286 60Z" fill="#802A8D"/>
<path fill-rule="evenodd" clip-rule="evenodd" d="M386.886 53.5C386.086 51.6 382.986 51.4 381.186 52.2C377.286 53.9 378.686 58.8 378.686 61.5C378.686 68.6 377.786 71.4 378.786 77.6C379.786 83.8 379.086 100.3 379.486 103.6C379.786 106.7 385.086 106.4 385.486 103.2C385.886 100.4 386.186 78.8 386.286 76.3C386.386 74 386.186 68.8 386.786 67C387.486 65.1 387.686 55.3 386.886 53.5Z" fill="#802A8D"/>
<path fill-rule="evenodd" clip-rule="evenodd" d="M387.886 84.7C396.486 84 403.886 81.2 404.686 84.6C404.886 85.4 410.286 84 410.386 83.2C410.786 81.1 404.986 69.9 404.386 72.6C403.086 78.7 392.286 77.5 387.986 77.1C382.286 76.6 381.986 85.2 387.886 84.7Z" fill="#802A8D"/>
<path fill-rule="evenodd" clip-rule="evenodd" d="M412.786 57C412.386 63.8 411.686 66.7 411.986 69.6C412.086 70.7 412.286 102.5 411.586 104.7C410.886 106.8 406.186 106.7 405.386 105.3C402.886 101 405.486 88.7 405.086 85C404.886 83.5 404.686 71.2 404.686 70.3C404.886 63.5 405.286 60.1 405.586 54.6C405.686 51.6 413.186 50.2 412.786 57Z" fill="#802A8D"/>
<path d="M220.286 92C210.486 39.6 164.586 0 109.386 0C58.0864 0 14.7864 34.3 1.08643 81.2L4.58643 81.9L8.08643 82.6C21.0864 38.9 61.4864 7 109.386 7C161.386 7 204.486 44.5 213.386 93.9L216.786 92.9L220.286 92Z" fill="#F59120"/>
<path d="M213.487 93.9C204.587 44.5 161.387 7 109.487 7C61.5865 7 21.0865 38.9 8.18652 82.6L11.6865 83.3L15.1865 84C27.4865 43.5 65.0865 14.1 109.587 14.1C158.287 14.1 198.787 49.5 206.787 95.9L210.187 94.9L213.487 93.9Z" fill="#FDDB00"/>
<path d="M199.986 97.7C192.886 54.2 155.186 21 109.686 21C68.5864 21 33.8864 48 22.2864 85.3L25.8864 86C25.9864 85.8 25.9864 85.7 26.0864 85.5L29.0864 86.1C39.8864 51.8 71.9864 26.9 109.886 26.9C152.186 26.9 187.186 57.8 193.586 98.3L196.586 97.4C196.686 97.8 196.686 98.2 196.786 98.6L199.986 97.7Z" fill="#25B5E9"/>
<path d="M220.986 90.3C220.286 89.3 218.786 88.9 217.186 89.3C215.586 89.7 212.986 90.6 210.086 91.7C207.186 92.7 203.986 93.9 200.986 94.8C192.386 97.4 184.086 97.9 178.686 97.9C178.486 97.9 178.186 97.9 177.986 97.9C177.986 97.9 170.886 93.9 167.986 90C164.386 85.1 164.486 84.3 162.986 81C161.586 77.9 160.186 76.1 156.786 76.2C153.386 76.3 150.886 77.3 148.186 77.8C144.386 78.5 141.386 78.9 136.186 79.4C129.286 80.1 125.886 80 121.386 80.5C115.386 81.1 109.586 81.3 105.986 81C103.586 80.8 101.086 80.3 96.0864 77.3C91.2864 74.5 88.4864 71.4 83.9864 66.4C80.6864 62.8 78.5864 60.9 76.2864 61C73.9864 61.1 72.4864 61.4 70.4864 64.7C67.8864 69.1 65.3864 73.2 62.6864 75.8C58.2864 80.1 54.5864 82.6 52.7864 83.3C42.8864 87.4 35.3864 84.6 27.5864 83.6C21.9864 82.9 9.18639 79.7 5.38639 78.9C-0.513609 77.7 -0.213606 82 0.186394 82.8C1.78639 85.7 5.28639 84.4 14.2864 86.4C22.1864 88.2 28.9864 90.9 35.9864 91.4C40.0864 91.7 41.3864 101.1 37.0864 111.4C34.1864 118.3 32.8864 135.2 29.8864 141.5C26.1864 149.3 29.1864 149.1 31.0864 149.4C32.9864 149.7 35.1864 150.2 37.0864 151.1C38.4864 151.7 39.7864 152.6 41.9864 151.6C43.1864 151.1 44.3864 150.4 44.3864 149.4C44.3864 148.7 43.8864 148.6 43.1864 148.4C42.3864 148.2 39.1864 148 37.7864 146.8C37.3864 133.3 41.3864 124.6 44.9864 118.7C47.1864 118.4 49.8864 118 52.2864 117.8C56.1864 126.5 60.5864 140.7 63.0864 154.1C63.4864 156.1 64.9864 156.6 66.7864 156.3C68.8864 155.9 68.8864 154.5 73.5864 152.8C77.3864 151.4 82.3864 150.4 83.7864 148.8C85.0864 147.3 83.8864 145.2 81.8864 145.4C79.8864 145.6 79.9864 145.4 78.5864 145.5C76.9864 145.6 76.7864 146.5 73.7864 147.6C72.5864 148 71.4864 148.5 70.3864 148.7C63.0864 126.2 59.9864 116.3 58.2864 106.5C57.2864 100.5 59.3864 97.3 58.6864 93.5C58.2864 91.4 59.4864 90.2 60.6864 88.9C64.6864 84.7 68.7864 79.8 71.9864 75.6C75.2864 71.3 76.6864 68.8 76.6864 68.8C76.6864 68.8 79.0864 71.5 81.9864 74.8C85.0864 78.3 88.8864 82.4 92.8864 85.5C95.9864 87.9 98.2864 88.9 99.2864 92.2L99.5864 96.2C99.9864 102.6 100.386 106.6 99.7864 118.1C98.9864 124.1 95.3864 138.6 91.7864 146C87.5864 154.9 90.9864 154.7 93.1864 155.1C95.3864 155.4 97.8864 156 100.086 157C101.686 157.7 103.186 158.8 105.686 157.6C107.086 157 108.386 156.2 108.486 155.1C108.486 154.3 107.986 154.1 107.086 154C106.186 153.8 102.586 153.6 100.886 152.1C100.486 136.5 105.286 126.4 110.486 120C115.486 119.6 119.386 118.7 124.486 118.5C128.786 132.1 131.786 145 134.586 160.5C134.986 162.8 136.786 163.3 138.786 163C141.186 162.6 141.186 161 146.586 159C150.986 157.4 156.686 156.2 158.286 154.4C159.786 152.6 158.386 150.2 156.086 150.5C153.786 150.8 153.886 150.6 152.286 150.7C150.486 150.8 150.286 151.8 146.786 153.1C145.486 153.6 144.186 154.2 142.786 154.4C137.086 138.4 129.586 97.1 128.886 91.9L128.386 89.1C132.186 87.7 136.686 87.5 144.486 85.9C150.986 84.6 153.286 83.8 156.486 82.8C158.086 86.1 159.586 89.1 163.186 94.5C165.786 98.5 171.386 102.1 171.586 106.4C171.686 107.9 171.686 109.3 171.786 110.8C171.886 114.8 172.686 118.9 171.986 125C171.486 128.2 170.286 132.1 169.286 135.9C168.386 139.1 167.586 142.1 166.486 144.5C165.086 147.4 164.686 149.3 165.286 150.4C165.786 151.3 166.686 151.4 167.486 151.5H167.786C169.086 151.7 170.986 152.1 172.586 152.8L172.986 153C173.586 153.3 174.386 153.7 175.186 153.7C175.786 153.7 176.286 153.6 176.886 153.3C177.886 152.9 179.086 152.2 179.086 151.2C179.086 150.3 178.286 150.1 177.786 150C177.686 150 177.486 149.9 177.286 149.9C176.386 149.8 174.686 149.5 173.686 148.8C173.486 139.8 175.686 132.3 180.286 126.6C181.386 126.5 182.486 126.3 183.486 126.2C185.586 125.9 187.486 125.6 189.786 125.6C192.686 134.7 194.786 143.6 196.886 155.1C197.186 156.7 198.486 157.5 200.386 157.2C201.286 157 201.686 156.7 202.286 156.3C202.986 155.8 203.886 155.1 205.986 154.4C206.886 154 207.986 153.7 208.986 153.4C211.386 152.7 213.586 152 214.486 151C215.086 150.4 215.186 149.5 214.886 148.8C214.486 148 213.586 147.5 212.586 147.6C211.486 147.7 211.286 147.7 210.886 147.7C210.586 147.7 210.386 147.7 209.886 147.7C209.086 147.7 208.686 148 208.086 148.3C207.586 148.6 206.986 149 205.886 149.4L205.386 149.6C204.686 149.9 204.086 150.1 203.486 150.2C199.486 138.9 193.786 109.8 194.186 102.6C199.686 101.7 206.986 98.7 209.886 97.7C213.086 96.6 215.086 96.1 216.586 95.8C217.886 95.5 218.786 95.3 219.686 94.8C220.486 94.4 221.086 93.6 221.286 92.8C221.586 91.7 221.486 90.9 220.986 90.3Z" fill="#802A8D"/>
<path d="M183.386 94.2C185.986 93.7 186.886 91.2 187.186 90.3C187.486 89.4 187.586 87.2 186.786 85.3C185.986 83.3 184.086 81.8 181.786 81.7C176.986 81.6 175.486 85.4 175.886 88.5C176.486 92.9 179.486 94.9 183.386 94.2Z" fill="#802A8D"/>
<path d="M45.1863 81.8C45.2863 81.8 45.4863 81.8 45.5863 81.8C47.5863 81.7 49.1863 80.4 50.3863 78C50.8863 77 51.1863 74.7 50.5863 72.4C49.8863 69.8 47.9863 67.9 45.5863 67.6C43.1863 67.3 41.1863 67.8 39.8863 69.1C38.2863 70.7 37.9863 73.1 37.9863 74.7C37.9863 79.1 40.7863 81.8 45.1863 81.8Z" fill="#802A8D"/>
<path d="M114.186 76.3C114.586 76.2 115.086 76 115.486 75.8C117.786 74.9 119.286 72.8 119.886 69.8C120.086 68.5 119.886 65.6 118.386 63.2C116.686 60.4 113.886 59 110.886 59.4C107.586 59.9 105.386 61.3 104.386 63.6C103.586 65.4 103.486 67.8 104.186 70.3C105.586 75.4 109.486 77.7 114.186 76.3Z" fill="#802A8D"/>
</svg>
